<?xml version="1.0" encoding="utf-8" ?>
<svg baseProfile="full" height="1200" version="1.1" width="800" xmlns="http://www.w3.org/2000/svg" xmlns:ev="http://www.w3.org/2001/xml-events" xmlns:xlink="http://www.w3.org/1999/xlink"><defs /><polygon fill="#f6f6ff" points="100.0,150.0 150.0,75.0 175.0,92.5 175.0,150.0 200.0,150.0 200.0,225.0 150.0,200.0" stroke="green" stroke-dasharray="1,1" /><text x="137.5" y="137.5">A1</text><polygon fill="#f6f6ff" points="175.0,92.5 225.0,125.0 300.0,100.0 300.0,150.0 200.0,150.0 175.0,150.0" stroke="green" stroke-dasharray="1,1" /><text x="225.0" y="145.0">A2</text><polygon fill="#f6f6ff" points="200.0,225.0 200.0,150.0 250.0,150.0 250.0,175.0 300.0,225.0 275.0,260.0 250.0,250.0" stroke="green" stroke-dasharray="1,1" /><text x="225.0" y="212.5">B1</text><polygon fill="#f6f6ff" points="250.0,150.0 250.0,175.0 300.0,225.0 375.0,225.0 375.0,200.0 300.0,150.0" stroke="green" stroke-dasharray="1,1" /><text x="300.0" y="200.0">B2</text><polygon fill="#f6f6ff" points="275.0,260.0 300.0,225.0 375.0,225.0 400.0,250.0 400.0,300.0 375.0,300.0" stroke="green" stroke-dasharray="1,1" /><text x="337.5" y="262.5">B3</text><polygon fill="#f6f6ff" points="300.0,100.0 350.0,100.0 375.0,75.0 375.0,125.0 400.0,200.0 375.0,200.0 300.0,150.0" stroke="green" stroke-dasharray="1,1" /><text x="325.0" y="137.5">C1</text><polygon fill="#f6f6ff" points="375.0,75.0 475.0,75.0 525.0,50.0 525.0,125.0 375.0,125.0" stroke="green" stroke-dasharray="1,1" /><text x="425.0" y="100.0">C2</text><polygon fill="#f6f6ff" points="375.0,125.0 525.0,125.0 525.0,200.0 400.0,200.0" stroke="green" stroke-dasharray="1,1" /><text x="437.5" y="162.5">C3</text><polygon fill="#f6f6ff" points="525.0,50.0 600.0,50.0 600.0,100.0 675.0,125.0 625.0,225.0 600.0,175.0 525.0,175.0" stroke="green" stroke-dasharray="1,1" /><text x="550.0" y="125.0">D1</text><polygon fill="#f6f6ff" points="600.0,50.0 625.0,25.0 675.0,25.0 675.0,125.0 600.0,100.0" stroke="green" stroke-dasharray="1,1" /><text x="625.0" y="75.0">D2</text><polygon fill="#f6f6ff" points="525.0,175.0 600.0,175.0 625.0,225.0 600.0,275.0 525.0,225.0" stroke="green" stroke-dasharray="1,1" /><text x="550.0" y="212.5">D3</text><polygon fill="#f6f6ff" points="375.0,200.0 425.0,200.0 425.0,225.0 400.0,250.0 375.0,225.0" stroke="green" stroke-dasharray="1,1" /><text x="392.5" y="225.0">E1</text><polygon fill="#f6f6ff" points="425.0,200.0 475.0,200.0 475.0,300.0 400.0,300.0 400.0,250.0 425.0,225.0" stroke="green" stroke-dasharray="1,1" /><text x="425.0" y="250.0">E2</text><polygon fill="#f6f6ff" points="475.0,200.0 525.0,200.0 525.0,225.0 500.0,300.0 475.0,300.0" stroke="green" stroke-dasharray="1,1" /><text x="487.5" y="250.0">E3</text><polygon fill="#f6f6ff" points="525.0,225.0 600.0,275.0 550.0,325.0 500.0,300.0" stroke="green" stroke-dasharray="1,1" /><text x="537.5" y="287.5">E4</text><polygon fill="#f6f6ff" points="450.0,300.0 487.5,300.0 487.5,400.0 400.0,400.0 400.0,425.0 325.0,425.0" stroke="green" stroke-dasharray="1,1" /><text x="425.0" y="375.0">F1</text><polygon fill="#f6f6ff" points="487.5,300.0 500.0,300.0 550.0,325.0 520.0,400.0 487.5,400.0" stroke="green" stroke-dasharray="1,1" /><text x="500.0" y="350.0">F2</text><polygon fill="#f6f6ff" points="400.0,400.0 520.0,400.0 500.0,450.0 400.0,450.0" stroke="green" stroke-dasharray="1,1" /><text x="450.0" y="425.0">F3</text><polygon fill="#f6f6ff" points="425.0,450.0 500.0,450.0 460.0,550.0 425.0,550.0" stroke="green" stroke-dasharray="1,1" /><text x="450.0" y="500.0">F4</text><polygon fill="#f6f6ff" points="325.0,425.0 400.0,425.0 400.0,450.0 425.0,450.0 425.0,475.0 325.0,475.0 325.0,525.0 312.5,525.0 300.0,525.0 300.0,450.0" stroke="green" stroke-dasharray="1,1" /><text x="325.0" y="450.0">G1</text><polygon fill="#f6f6ff" points="325.0,475.0 425.0,475.0 425.0,550.0 325.0,550.0 312.5,550.0 312.5,525.0 325.0,525.0" stroke="green" stroke-dasharray="1,1" /><text x="362.5" y="525.0">G2</text><polygon fill="#f6f6ff" points="325.0,550.0 460.0,550.0 450.0,575.0 415.0,600.0 325.0,575.0" stroke="green" stroke-dasharray="1,1" /><text x="375.0" y="575.0">G3</text><polygon fill="#f6f6ff" points="250.0,500.0 300.0,450.0 300.0,525.0 312.5,525.0 275.0,525.0 275.0,550.0 225.0,550.0 225.0,500.0" stroke="green" stroke-dasharray="1,1" /><text x="262.5" y="512.5">H1</text><polygon fill="#f6f6ff" points="275.0,525.0 312.5,525.0 312.5,550.0 275.0,550.0" stroke="green" stroke-dasharray="1,1" /><text x="282.5" y="545.0">H2</text><polygon fill="#f6f6ff" points="250.0,550.0 325.0,550.0 325.0,575.0 300.0,600.0 300.0,625.0 250.0,625.0" stroke="green" stroke-dasharray="1,1" /><text x="262.5" y="600.0">H3</text><polygon fill="#f6f6ff" points="325.0,575.0 415.0,600.0 345.0,650.0 300.0,625.0 300.0,600.0" stroke="green" stroke-dasharray="1,1" /><text x="337.5" y="625.0">I1</text><polygon fill="#f6f6ff" points="275.0,625.0 300.0,625.0 345.0,650.0 275.0,700.0" stroke="green" stroke-dasharray="1,1" /><text x="287.5" y="655.0">I2</text><polygon fill="#f6f6ff" points="125.0,550.0 175.0,500.0 200.0,550.0 200.0,600.0 150.0,600.0 150.0,575.0" stroke="green" stroke-dasharray="1,1" /><text x="162.5" y="575.0">J1</text><polygon fill="#f6f6ff" points="175.0,500.0 225.0,500.0 225.0,550.0 250.0,550.0 250.0,600.0 200.0,600.0 200.0,550.0" stroke="green" stroke-dasharray="1,1" /><text x="212.5" y="575.0">J2</text><polygon fill="#f6f6ff" points="125.0,625.0 150.0,625.0 175.0,650.0 175.0,700.0 150.0,725.0 125.0,675.0" stroke="green" stroke-dasharray="1,1" /><text x="137.5" y="662.5">K1</text><polygon fill="#f6f6ff" points="150.0,625.0 150.0,600.0 250.0,600.0 250.0,650.0 175.0,650.0" stroke="green" stroke-dasharray="1,1" /><text x="187.5" y="637.5">K2</text><polygon fill="#f6f6ff" points="175.0,650.0 250.0,650.0 175.0,700.0" stroke="green" stroke-dasharray="1,1" /><text x="182.5" y="675.0">K3</text><polygon fill="#f6f6ff" points="150.0,725.0 175.0,700.0 200.0,683.5 232.5,727.5 185.0,760.0" stroke="green" stroke-dasharray="1,1" /><text x="187.5" y="737.5">L1</text><polygon fill="#f6f6ff" points="200.0,683.5 250.0,650.0 250.0,625.0 275.0,625.0 275.0,700.0 255.0,700.0 255.0,712.5 232.5,727.5" stroke="green" stroke-dasharray="1,1" /><text x="230.0" y="695.0">L2</text><polygon fill="#f6f6ff" points="25.0,625.0 75.0,550.0 75.0,625.0 75.0,675.0 25.0,675.0" stroke="green" stroke-dasharray="1,1" /><text x="37.5" y="650.0">M1</text><polygon fill="#f6f6ff" points="75.0,550.0 125.0,550.0 150.0,575.0 150.0,600.0 150.0,625.0 125.0,625.0 75.0,625.0" stroke="green" stroke-dasharray="1,1" /><text x="100.0" y="600.0">M2</text><polygon fill="#f6f6ff" points="75.0,625.0 125.0,625.0 125.0,675.0 75.0,675.0" stroke="green" stroke-dasharray="1,1" /><text x="87.5" y="655.0">M3</text><polygon fill="#f6f6ff" points="25.0,675.0 125.0,675.0 137.5,700.0 100.0,725.0 25.0,725.0" stroke="green" stroke-dasharray="1,1" /><text x="75.0" y="700.0">N1</text><polygon fill="#f6f6ff" points="100.0,725.0 137.5,700.0 150.0,725.0 185.0,760.0 125.0,800.0 100.0,775.0" stroke="green" stroke-dasharray="1,1" /><text x="125.0" y="762.5">N2</text><polygon fill="#f6f6ff" points="25.0,725.0 50.0,725.0 50.0,775.0 87.5,850.0 50.0,900.0 25.0,850.0" stroke="green" stroke-dasharray="1,1" /><text x="50.0" y="850.0">O1</text><polygon fill="#f6f6ff" points="50.0,725.0 100.0,725.0 100.0,775.0 50.0,775.0" stroke="green" stroke-dasharray="1,1" /><text x="62.5" y="762.5">O2</text><polygon fill="#f6f6ff" points="50.0,775.0 100.0,775.0 125.0,800.0 87.5,850.0" stroke="green" stroke-dasharray="1,1" /><text x="87.5" y="812.5">O3</text><polygon fill="#f6f6ff" points="250.0,250.0 350.0,290.0 350.0,350.0 325.0,350.0 325.0,375.0 250.0,375.0" stroke="green" stroke-dasharray="1,1" /><text x="287.5" y="325.0">P1</text><polygon fill="#f6f6ff" points="250.0,375.0 325.0,375.0 325.0,350.0 350.0,350.0 350.0,400.0 250.0,500.0" stroke="green" stroke-dasharray="1,1" /><text x="275.0" y="425.0">P2</text><polygon fill="#f6f6ff" points="350.0,290.0 375.0,300.0 450.0,300.0 350.0,400.0" stroke="green" stroke-dasharray="1,1" /><text x="375.0" y="337.5">P3</text><polyline points="300.0,150.0 300.0,100.0" stroke="#aa2222" stroke-dasharray="1,1" /><polyline points="520.0,400.0 550.0,325.0" stroke="#aa2222" stroke-dasharray="1,1" /><polyline points="400.0,300.0 400.0,250.0" stroke="#aa2222" stroke-dasharray="1,1" /><polyline points="200.0,600.0 250.0,600.0" stroke="#aa2222" stroke-dasharray="1,1" /><polyline points="275.0,625.0 300.0,625.0" stroke="#aa2222" stroke-dasharray="1,1" /><polyline points="425.0,550.0 325.0,550.0" stroke="#aa2222" stroke-dasharray="1,1" /><polyline points="375.0,300.0 275.0,260.0" stroke="#aa2222" stroke-dasharray="1,1" /><polyline points="75.0,675.0 125.0,675.0" stroke="#aa2222" stroke-dasharray="1,1" /><polyline points="125.0,800.0 87.5,850.0" stroke="#aa2222" stroke-dasharray="1,1" /><polyline points="520.0,400.0 500.0,450.0" stroke="#aa2222" stroke-dasharray="1,1" /><polyline points="250.0,550.0 250.0,600.0" stroke="#aa2222" stroke-dasharray="1,1" /><polyline points="400.0,250.0 375.0,225.0" stroke="#aa2222" stroke-dasharray="1,1" /><polyline points="525.0,200.0 475.0,200.0" stroke="#aa2222" stroke-dasharray="1,1" /><polyline points="300.0,150.0 375.0,200.0" stroke="#aa2222" stroke-dasharray="1,1" /><polyline points="425.0,450.0 425.0,550.0" stroke="#aa2222" stroke-dasharray="1,1" /><polyline points="75.0,550.0 25.0,625.0" stroke="#aa2222" stroke-dasharray="1,1" /><polyline points="475.0,200.0 525.0,200.0" stroke="#aa2222" stroke-dasharray="1,1" /><polyline points="87.5,850.0 50.0,900.0" stroke="#aa2222" stroke-dasharray="1,1" /><polyline points="450.0,575.0 460.0,550.0" stroke="#aa2222" stroke-dasharray="1,1" /><polyline points="520.0,400.0 487.5,400.0" stroke="#aa2222" stroke-dasharray="1,1" /><polyline points="460.0,550.0 500.0,450.0" stroke="#aa2222" stroke-dasharray="1,1" /><polyline points="300.0,525.0 312.5,525.0" stroke="#aa2222" stroke-dasharray="1,1" /><polyline points="525.0,200.0 525.0,125.0" stroke="#aa2222" stroke-dasharray="1,1" /><polyline points="150.0,625.0 125.0,625.0" stroke="#aa2222" stroke-dasharray="1,1" /><polyline points="675.0,125.0 675.0,25.0" stroke="#aa2222" stroke-dasharray="1,1" /><polyline points="312.5,525.0 300.0,525.0" stroke="#aa2222" stroke-dasharray="1,1" /><polyline points="175.0,92.5 225.0,125.0" stroke="#aa2222" stroke-dasharray="1,1" /><polyline points="50.0,900.0 25.0,850.0" stroke="#aa2222" stroke-dasharray="1,1" /><polyline points="400.0,400.0 487.5,400.0" stroke="#aa2222" stroke-dasharray="1,1" /><polyline points="150.0,600.0 250.0,600.0" stroke="#aa2222" stroke-dasharray="1,1" /><polyline points="525.0,50.0 525.0,125.0" stroke="#aa2222" stroke-dasharray="1,1" /><polyline points="400.0,450.0 425.0,450.0" stroke="#aa2222" stroke-dasharray="1,1" /><polyline points="250.0,250.0 200.0,225.0" stroke="#aa2222" stroke-dasharray="1,1" /><polyline points="400.0,400.0 520.0,400.0" stroke="#aa2222" stroke-dasharray="1,1" /><polyline points="425.0,200.0 475.0,200.0" stroke="#aa2222" stroke-dasharray="1,1" /><polyline points="600.0,50.0 525.0,50.0" stroke="#aa2222" stroke-dasharray="1,1" /><polyline points="500.0,450.0 520.0,400.0" stroke="#aa2222" stroke-dasharray="1,1" /><polyline points="425.0,550.0 460.0,550.0" stroke="#aa2222" stroke-dasharray="1,1" /><polyline points="175.0,500.0 125.0,550.0" stroke="#aa2222" stroke-dasharray="1,1" /><polyline points="675.0,25.0 675.0,125.0" stroke="#aa2222" stroke-dasharray="1,1" /><polyline points="175.0,500.0 225.0,500.0" stroke="#aa2222" stroke-dasharray="1,1" /><polyline points="520.0,400.0 400.0,400.0" stroke="#aa2222" stroke-dasharray="1,1" /><polyline points="75.0,675.0 25.0,675.0" stroke="#aa2222" stroke-dasharray="1,1" /><polyline points="250.0,150.0 200.0,150.0" stroke="#aa2222" stroke-dasharray="1,1" /><polyline points="300.0,150.0 250.0,150.0" stroke="#aa2222" stroke-dasharray="1,1" /><polyline points="150.0,725.0 137.5,700.0" stroke="#aa2222" stroke-dasharray="1,1" /><polyline points="250.0,625.0 250.0,650.0" stroke="#aa2222" stroke-dasharray="1,1" /><polyline points="137.5,700.0 125.0,675.0" stroke="#aa2222" stroke-dasharray="1,1" /><polyline points="375.0,200.0 375.0,225.0" stroke="#aa2222" stroke-dasharray="1,1" /><polyline points="475.0,300.0 500.0,300.0" stroke="#aa2222" stroke-dasharray="1,1" /><polyline points="125.0,800.0 185.0,760.0" stroke="#aa2222" stroke-dasharray="1,1" /><polyline points="415.0,600.0 345.0,650.0" stroke="#aa2222" stroke-dasharray="1,1" /><polyline points="185.0,760.0 232.5,727.5" stroke="#aa2222" stroke-dasharray="1,1" /><polyline points="325.0,550.0 312.5,550.0" stroke="#aa2222" stroke-dasharray="1,1" /><polyline points="625.0,25.0 675.0,25.0" stroke="#aa2222" stroke-dasharray="1,1" /><polyline points="525.0,125.0 525.0,50.0" stroke="#aa2222" stroke-dasharray="1,1" /><polyline points="150.0,575.0 125.0,550.0" stroke="#aa2222" stroke-dasharray="1,1" /><polyline points="125.0,675.0 125.0,625.0" stroke="#aa2222" stroke-dasharray="1,1" /><polyline points="125.0,675.0 137.5,700.0" stroke="#aa2222" stroke-dasharray="1,1" /><polyline points="450.0,575.0 415.0,600.0" stroke="#aa2222" stroke-dasharray="1,1" /><polyline points="275.0,700.0 275.0,625.0" stroke="#aa2222" stroke-dasharray="1,1" /><polyline points="25.0,725.0 25.0,675.0" stroke="#aa2222" stroke-dasharray="1,1" /><polyline points="525.0,200.0 525.0,225.0" stroke="#aa2222" stroke-dasharray="1,1" /><polyline points="25.0,675.0 125.0,675.0" stroke="#aa2222" stroke-dasharray="1,1" /><polyline points="250.0,500.0 300.0,450.0" stroke="#aa2222" stroke-dasharray="1,1" /><polyline points="175.0,700.0 150.0,725.0" stroke="#aa2222" stroke-dasharray="1,1" /><polyline points="25.0,625.0 25.0,675.0" stroke="#aa2222" stroke-dasharray="1,1" /><polyline points="350.0,100.0 375.0,75.0" stroke="#aa2222" stroke-dasharray="1,1" /><polyline points="400.0,300.0 375.0,300.0" stroke="#aa2222" stroke-dasharray="1,1" /><polyline points="450.0,300.0 487.5,300.0" stroke="#aa2222" stroke-dasharray="1,1" /><polyline points="300.0,100.0 225.0,125.0" stroke="#aa2222" stroke-dasharray="1,1" /><polyline points="525.0,225.0 600.0,275.0" stroke="#aa2222" stroke-dasharray="1,1" /><polyline points="500.0,300.0 475.0,300.0" stroke="#aa2222" stroke-dasharray="1,1" /><polyline points="125.0,675.0 25.0,675.0" stroke="#aa2222" stroke-dasharray="1,1" /><polyline points="400.0,425.0 400.0,400.0" stroke="#aa2222" stroke-dasharray="1,1" /><polyline points="250.0,650.0 250.0,625.0" stroke="#aa2222" stroke-dasharray="1,1" /><polyline points="500.0,300.0 550.0,325.0" stroke="#aa2222" stroke-dasharray="1,1" /><polyline points="50.0,725.0 100.0,725.0" stroke="#aa2222" stroke-dasharray="1,1" /><polyline points="300.0,450.0 325.0,425.0" stroke="#aa2222" stroke-dasharray="1,1" /><polyline points="250.0,550.0 225.0,550.0" stroke="#aa2222" stroke-dasharray="1,1" /><polyline points="312.5,550.0 312.5,525.0" stroke="#aa2222" stroke-dasharray="1,1" /><polyline points="525.0,200.0 400.0,200.0" stroke="#aa2222" stroke-dasharray="1,1" /><polyline points="400.0,450.0 500.0,450.0" stroke="#aa2222" stroke-dasharray="1,1" /><polyline points="125.0,625.0 125.0,675.0" stroke="#aa2222" stroke-dasharray="1,1" /><polyline points="625.0,25.0 600.0,50.0" stroke="#aa2222" stroke-dasharray="1,1" /><polyline points="250.0,650.0 200.0,683.5" stroke="#aa2222" stroke-dasharray="1,1" /><polyline points="375.0,300.0 400.0,300.0" stroke="#aa2222" stroke-dasharray="1,1" /><polyline points="175.0,700.0 200.0,683.5" stroke="#aa2222" stroke-dasharray="1,1" /><polyline points="487.5,300.0 500.0,300.0" stroke="#aa2222" stroke-dasharray="1,1" /><polyline points="275.0,700.0 255.0,700.0" stroke="#aa2222" stroke-dasharray="1,1" /><polyline points="200.0,600.0 150.0,600.0" stroke="#aa2222" stroke-dasharray="1,1" /><polyline points="225.0,550.0 225.0,500.0" stroke="#aa2222" stroke-dasharray="1,1" /><polyline points="525.0,225.0 525.0,175.0" stroke="#aa2222" stroke-dasharray="1,1" /><polyline points="100.0,725.0 25.0,725.0" stroke="#aa2222" stroke-dasharray="1,1" /><polyline points="325.0,575.0 300.0,600.0" stroke="#aa2222" stroke-dasharray="1,1" /><polyline points="400.0,300.0 475.0,300.0" stroke="#aa2222" stroke-dasharray="1,1" /><polyline points="300.0,600.0 325.0,575.0" stroke="#aa2222" stroke-dasharray="1,1" /><polyline points="487.5,400.0 400.0,400.0" stroke="#aa2222" stroke-dasharray="1,1" /><polyline points="400.0,200.0 525.0,200.0" stroke="#aa2222" stroke-dasharray="1,1" /><polyline points="250.0,600.0 150.0,600.0" stroke="#aa2222" stroke-dasharray="1,1" /><polyline points="300.0,625.0 250.0,625.0" stroke="#aa2222" stroke-dasharray="1,1" /><polyline points="375.0,225.0 400.0,250.0" stroke="#aa2222" stroke-dasharray="1,1" /><polyline points="225.0,550.0 250.0,550.0" stroke="#aa2222" stroke-dasharray="1,1" /><polyline points="250.0,550.0 250.0,625.0" stroke="#aa2222" stroke-dasharray="1,1" /><polyline points="275.0,550.0 312.5,550.0" stroke="#aa2222" stroke-dasharray="1,1" /><polyline points="600.0,275.0 550.0,325.0" stroke="#aa2222" stroke-dasharray="1,1" /><polyline points="250.0,600.0 200.0,600.0" stroke="#aa2222" stroke-dasharray="1,1" /><polyline points="300.0,150.0 200.0,150.0" stroke="#aa2222" stroke-dasharray="1,1" /><polyline points="100.0,775.0 100.0,725.0" stroke="#aa2222" stroke-dasharray="1,1" /><polyline points="425.0,450.0 500.0,450.0" stroke="#aa2222" stroke-dasharray="1,1" /><polyline points="150.0,200.0 100.0,150.0" stroke="#aa2222" stroke-dasharray="1,1" /><polyline points="675.0,25.0 625.0,25.0" stroke="#aa2222" stroke-dasharray="1,1" /><polyline points="25.0,850.0 50.0,900.0" stroke="#aa2222" stroke-dasharray="1,1" /><polyline points="375.0,75.0 350.0,100.0" stroke="#aa2222" stroke-dasharray="1,1" /><polyline points="250.0,650.0 250.0,600.0" stroke="#aa2222" stroke-dasharray="1,1" /><polyline points="225.0,550.0 275.0,550.0" stroke="#aa2222" stroke-dasharray="1,1" /><polyline points="345.0,650.0 415.0,600.0" stroke="#aa2222" stroke-dasharray="1,1" /><polyline points="425.0,450.0 425.0,475.0" stroke="#aa2222" stroke-dasharray="1,1" /><polyline points="125.0,550.0 175.0,500.0" stroke="#aa2222" stroke-dasharray="1,1" /><polyline points="525.0,125.0 525.0,200.0" stroke="#aa2222" stroke-dasharray="1,1" /><polyline points="500.0,450.0 425.0,450.0" stroke="#aa2222" stroke-dasharray="1,1" /><polyline points="137.5,700.0 150.0,725.0" stroke="#aa2222" stroke-dasharray="1,1" /><polyline points="450.0,300.0 325.0,425.0" stroke="#aa2222" stroke-dasharray="1,1" /><polyline points="75.0,550.0 125.0,550.0" stroke="#aa2222" stroke-dasharray="1,1" /><polyline points="525.0,50.0 600.0,50.0" stroke="#aa2222" stroke-dasharray="1,1" /><polyline points="600.0,275.0 525.0,225.0" stroke="#aa2222" stroke-dasharray="1,1" /><polyline points="475.0,75.0 525.0,50.0" stroke="#aa2222" stroke-dasharray="1,1" /><polyline points="300.0,625.0 300.0,600.0" stroke="#aa2222" stroke-dasharray="1,1" /><polyline points="275.0,260.0 250.0,250.0" stroke="#aa2222" stroke-dasharray="1,1" /><polyline points="25.0,675.0 25.0,625.0" stroke="#aa2222" stroke-dasharray="1,1" /><polyline points="125.0,625.0 150.0,625.0" stroke="#aa2222" stroke-dasharray="1,1" /><polyline points="255.0,712.5 255.0,700.0" stroke="#aa2222" stroke-dasharray="1,1" /><polyline points="275.0,260.0 375.0,300.0" stroke="#aa2222" stroke-dasharray="1,1" /><polyline points="175.0,700.0 250.0,650.0" stroke="#aa2222" stroke-dasharray="1,1" /><polyline points="250.0,600.0 250.0,650.0" stroke="#aa2222" stroke-dasharray="1,1" /><polyline points="400.0,200.0 375.0,200.0" stroke="#aa2222" stroke-dasharray="1,1" /><polyline points="25.0,725.0 25.0,850.0" stroke="#aa2222" stroke-dasharray="1,1" /><polyline points="550.0,325.0 500.0,300.0" stroke="#aa2222" stroke-dasharray="1,1" /><polyline points="25.0,675.0 25.0,725.0" stroke="#aa2222" stroke-dasharray="1,1" /><polyline points="525.0,225.0 525.0,200.0" stroke="#aa2222" stroke-dasharray="1,1" /><polyline points="625.0,225.0 675.0,125.0" stroke="#aa2222" stroke-dasharray="1,1" /><polyline points="550.0,325.0 520.0,400.0" stroke="#aa2222" stroke-dasharray="1,1" /><polyline points="325.0,425.0 450.0,300.0" stroke="#aa2222" stroke-dasharray="1,1" /><polyline points="255.0,700.0 255.0,712.5" stroke="#aa2222" stroke-dasharray="1,1" /><polyline points="625.0,225.0 600.0,275.0" stroke="#aa2222" stroke-dasharray="1,1" /><polyline points="150.0,725.0 175.0,700.0" stroke="#aa2222" stroke-dasharray="1,1" /><polyline points="25.0,850.0 25.0,725.0" stroke="#aa2222" stroke-dasharray="1,1" /><polyline points="250.0,500.0 225.0,500.0" stroke="#aa2222" stroke-dasharray="1,1" /><polyline points="225.0,125.0 175.0,92.5" stroke="#aa2222" stroke-dasharray="1,1" /><polyline points="125.0,675.0 150.0,725.0" stroke="#aa2222" stroke-dasharray="1,1" /><polyline points="250.0,650.0 175.0,700.0" stroke="#aa2222" stroke-dasharray="1,1" /><polyline points="200.0,150.0 250.0,150.0" stroke="#aa2222" stroke-dasharray="1,1" /><polyline points="250.0,625.0 250.0,550.0" stroke="#aa2222" stroke-dasharray="1,1" /><polyline points="600.0,50.0 625.0,25.0" stroke="#aa2222" stroke-dasharray="1,1" /><polyline points="525.0,175.0 525.0,50.0" stroke="#aa2222" stroke-dasharray="1,1" /><polyline points="400.0,250.0 400.0,300.0" stroke="#aa2222" stroke-dasharray="1,1" /><polyline points="100.0,150.0 150.0,75.0" stroke="#aa2222" stroke-dasharray="1,1" /><polyline points="500.0,300.0 487.5,300.0" stroke="#aa2222" stroke-dasharray="1,1" /><polyline points="375.0,225.0 375.0,200.0" stroke="#aa2222" stroke-dasharray="1,1" /><polyline points="325.0,575.0 325.0,550.0" stroke="#aa2222" stroke-dasharray="1,1" /><polyline points="375.0,200.0 400.0,200.0" stroke="#aa2222" stroke-dasharray="1,1" /><polyline points="525.0,175.0 525.0,225.0" stroke="#aa2222" stroke-dasharray="1,1" /><polyline points="375.0,200.0 300.0,150.0" stroke="#aa2222" stroke-dasharray="1,1" /><polyline points="475.0,75.0 375.0,75.0" stroke="#aa2222" stroke-dasharray="1,1" /><polyline points="425.0,475.0 425.0,550.0" stroke="#aa2222" stroke-dasharray="1,1" /><polyline points="125.0,675.0 75.0,675.0" stroke="#aa2222" stroke-dasharray="1,1" /><polyline points="255.0,700.0 275.0,700.0" stroke="#aa2222" stroke-dasharray="1,1" /><polyline points="150.0,600.0 150.0,625.0" stroke="#aa2222" stroke-dasharray="1,1" /><polyline points="175.0,92.5 150.0,75.0" stroke="#aa2222" stroke-dasharray="1,1" /><polyline points="325.0,550.0 460.0,550.0" stroke="#aa2222" stroke-dasharray="1,1" /><polyline points="375.0,75.0 475.0,75.0" stroke="#aa2222" stroke-dasharray="1,1" /><polyline points="150.0,75.0 175.0,92.5" stroke="#aa2222" stroke-dasharray="1,1" /><polyline points="225.0,500.0 175.0,500.0" stroke="#aa2222" stroke-dasharray="1,1" /><polyline points="100.0,150.0 150.0,200.0" stroke="#aa2222" stroke-dasharray="1,1" /><polyline points="312.5,550.0 325.0,550.0" stroke="#aa2222" stroke-dasharray="1,1" /><polyline points="200.0,150.0 200.0,225.0" stroke="#aa2222" stroke-dasharray="1,1" /><polyline points="345.0,650.0 275.0,700.0" stroke="#aa2222" stroke-dasharray="1,1" /><polyline points="232.5,727.5 255.0,712.5" stroke="#aa2222" stroke-dasharray="1,1" /><polyline points="400.0,425.0 325.0,425.0" stroke="#aa2222" stroke-dasharray="1,1" /><polyline points="275.0,700.0 345.0,650.0" stroke="#aa2222" stroke-dasharray="1,1" /><polyline points="225.0,500.0 225.0,550.0" stroke="#aa2222" stroke-dasharray="1,1" /><polyline points="225.0,125.0 300.0,100.0" stroke="#aa2222" stroke-dasharray="1,1" /><polyline points="100.0,725.0 100.0,775.0" stroke="#aa2222" stroke-dasharray="1,1" /><polyline points="300.0,450.0 300.0,525.0" stroke="#aa2222" stroke-dasharray="1,1" /><polyline points="25.0,625.0 75.0,550.0" stroke="#aa2222" stroke-dasharray="1,1" /><polyline points="400.0,400.0 400.0,425.0" stroke="#aa2222" stroke-dasharray="1,1" /><polyline points="25.0,675.0 75.0,675.0" stroke="#aa2222" stroke-dasharray="1,1" /><polyline points="487.5,400.0 520.0,400.0" stroke="#aa2222" stroke-dasharray="1,1" /><polyline points="460.0,550.0 425.0,550.0" stroke="#aa2222" stroke-dasharray="1,1" /><polyline points="275.0,625.0 275.0,700.0" stroke="#aa2222" stroke-dasharray="1,1" /><polyline points="250.0,550.0 325.0,550.0" stroke="#aa2222" stroke-dasharray="1,1" /><polyline points="300.0,450.0 250.0,500.0" stroke="#aa2222" stroke-dasharray="1,1" /><polyline points="475.0,300.0 400.0,300.0" stroke="#aa2222" stroke-dasharray="1,1" /><polyline points="25.0,725.0 100.0,725.0" stroke="#aa2222" stroke-dasharray="1,1" /><polyline points="150.0,725.0 125.0,675.0" stroke="#aa2222" stroke-dasharray="1,1" /><polyline points="312.5,550.0 275.0,550.0" stroke="#aa2222" stroke-dasharray="1,1" /><polyline points="275.0,550.0 225.0,550.0" stroke="#aa2222" stroke-dasharray="1,1" /><polyline points="232.5,727.5 185.0,760.0" stroke="#aa2222" stroke-dasharray="1,1" /><polyline points="150.0,725.0 185.0,760.0" stroke="#aa2222" stroke-dasharray="1,1" /><polyline points="100.0,775.0 125.0,800.0" stroke="#aa2222" stroke-dasharray="1,1" /><polyline points="255.0,712.5 232.5,727.5" stroke="#aa2222" stroke-dasharray="1,1" /><polyline points="375.0,200.0 425.0,200.0" stroke="#aa2222" stroke-dasharray="1,1" /><polyline points="400.0,425.0 400.0,450.0" stroke="#aa2222" stroke-dasharray="1,1" /><polyline points="200.0,225.0 200.0,150.0" stroke="#aa2222" stroke-dasharray="1,1" /><polyline points="185.0,760.0 125.0,800.0" stroke="#aa2222" stroke-dasharray="1,1" /><polyline points="225.0,500.0 250.0,500.0" stroke="#aa2222" stroke-dasharray="1,1" /><polyline points="150.0,575.0 150.0,600.0" stroke="#aa2222" stroke-dasharray="1,1" /><polyline points="300.0,100.0 300.0,150.0" stroke="#aa2222" stroke-dasharray="1,1" /><polyline points="25.0,725.0 50.0,725.0" stroke="#aa2222" stroke-dasharray="1,1" /><polyline points="50.0,900.0 87.5,850.0" stroke="#aa2222" stroke-dasharray="1,1" /><polyline points="425.0,550.0 425.0,450.0" stroke="#aa2222" stroke-dasharray="1,1" /><polyline points="125.0,550.0 75.0,550.0" stroke="#aa2222" stroke-dasharray="1,1" /><polyline points="425.0,450.0 400.0,450.0" stroke="#aa2222" stroke-dasharray="1,1" /><polyline points="250.0,250.0 275.0,260.0" stroke="#aa2222" stroke-dasharray="1,1" /><polyline points="525.0,50.0 475.0,75.0" stroke="#aa2222" stroke-dasharray="1,1" /><polyline points="460.0,550.0 450.0,575.0" stroke="#aa2222" stroke-dasharray="1,1" /><polyline points="50.0,725.0 25.0,725.0" stroke="#aa2222" stroke-dasharray="1,1" /><polyline points="325.0,550.0 425.0,550.0" stroke="#aa2222" stroke-dasharray="1,1" /><polyline points="425.0,475.0 425.0,450.0" stroke="#aa2222" stroke-dasharray="1,1" /><polyline points="200.0,225.0 150.0,200.0" stroke="#aa2222" stroke-dasharray="1,1" /><polyline points="500.0,450.0 400.0,450.0" stroke="#aa2222" stroke-dasharray="1,1" /><polyline points="150.0,600.0 200.0,600.0" stroke="#aa2222" stroke-dasharray="1,1" /><polyline points="400.0,400.0 400.0,450.0" stroke="#aa2222" stroke-dasharray="1,1" /><polyline points="300.0,600.0 300.0,625.0" stroke="#aa2222" stroke-dasharray="1,1" /><polyline points="300.0,100.0 350.0,100.0" stroke="#aa2222" stroke-dasharray="1,1" /><polyline points="325.0,550.0 250.0,550.0" stroke="#aa2222" stroke-dasharray="1,1" /><polyline points="87.5,850.0 125.0,800.0" stroke="#aa2222" stroke-dasharray="1,1" /><polyline points="325.0,575.0 415.0,600.0" stroke="#aa2222" stroke-dasharray="1,1" /><polyline points="325.0,550.0 325.0,575.0" stroke="#aa2222" stroke-dasharray="1,1" /><polyline points="250.0,625.0 300.0,625.0" stroke="#aa2222" stroke-dasharray="1,1" /><polyline points="300.0,525.0 300.0,450.0" stroke="#aa2222" stroke-dasharray="1,1" /><polyline points="125.0,800.0 100.0,775.0" stroke="#aa2222" stroke-dasharray="1,1" /><polyline points="325.0,425.0 300.0,450.0" stroke="#aa2222" stroke-dasharray="1,1" /><polyline points="250.0,625.0 275.0,625.0" stroke="#aa2222" stroke-dasharray="1,1" /><polyline points="600.0,275.0 625.0,225.0" stroke="#aa2222" stroke-dasharray="1,1" /><polyline points="675.0,125.0 625.0,225.0" stroke="#aa2222" stroke-dasharray="1,1" /><polyline points="200.0,683.5 175.0,700.0" stroke="#aa2222" stroke-dasharray="1,1" /><polyline points="460.0,550.0 325.0,550.0" stroke="#aa2222" stroke-dasharray="1,1" /><polyline points="275.0,625.0 250.0,625.0" stroke="#aa2222" stroke-dasharray="1,1" /><polyline points="550.0,325.0 600.0,275.0" stroke="#aa2222" stroke-dasharray="1,1" /><polyline points="100.0,725.0 50.0,725.0" stroke="#aa2222" stroke-dasharray="1,1" /><polyline points="150.0,625.0 150.0,600.0" stroke="#aa2222" stroke-dasharray="1,1" /><polyline points="400.0,450.0 400.0,400.0" stroke="#aa2222" stroke-dasharray="1,1" /><polyline points="150.0,75.0 100.0,150.0" stroke="#aa2222" stroke-dasharray="1,1" /><polyline points="200.0,150.0 300.0,150.0" stroke="#aa2222" stroke-dasharray="1,1" /><polyline points="300.0,625.0 275.0,625.0" stroke="#aa2222" stroke-dasharray="1,1" /><polyline points="250.0,600.0 250.0,550.0" stroke="#aa2222" stroke-dasharray="1,1" /><polyline points="185.0,760.0 150.0,725.0" stroke="#aa2222" stroke-dasharray="1,1" /><polyline points="325.0,425.0 400.0,425.0" stroke="#aa2222" stroke-dasharray="1,1" /><polyline points="415.0,600.0 325.0,575.0" stroke="#aa2222" stroke-dasharray="1,1" /><polyline points="350.0,100.0 300.0,100.0" stroke="#aa2222" stroke-dasharray="1,1" /><polyline points="150.0,600.0 150.0,575.0" stroke="#aa2222" stroke-dasharray="1,1" /><polyline points="312.5,525.0 312.5,550.0" stroke="#aa2222" stroke-dasharray="1,1" /><polyline points="487.5,300.0 450.0,300.0" stroke="#aa2222" stroke-dasharray="1,1" /><polyline points="425.0,550.0 425.0,475.0" stroke="#aa2222" stroke-dasharray="1,1" /><polyline points="475.0,200.0 425.0,200.0" stroke="#aa2222" stroke-dasharray="1,1" /><polyline points="200.0,225.0 250.0,250.0" stroke="#aa2222" stroke-dasharray="1,1" /><polyline points="400.0,450.0 400.0,425.0" stroke="#aa2222" stroke-dasharray="1,1" /><polyline points="200.0,683.5 250.0,650.0" stroke="#aa2222" stroke-dasharray="1,1" /><polyline points="525.0,50.0 525.0,175.0" stroke="#aa2222" stroke-dasharray="1,1" /><polyline points="425.0,200.0 375.0,200.0" stroke="#aa2222" stroke-dasharray="1,1" /><polyline points="250.0,150.0 300.0,150.0" stroke="#aa2222" stroke-dasharray="1,1" /><polyline points="150.0,200.0 200.0,225.0" stroke="#aa2222" stroke-dasharray="1,1" /><polyline points="415.0,600.0 450.0,575.0" stroke="#aa2222" stroke-dasharray="1,1" /><polyline points="125.0,550.0 150.0,575.0" stroke="#aa2222" stroke-dasharray="1,1" /><polyline points="500.0,450.0 460.0,550.0" stroke="#aa2222" stroke-dasharray="1,1" /><polygon fill="#0000aa" onmouseover="alert('foo!');" points="275.0,700.0 255.0,700.0 255.0,712.5" stroke="green" /><polygon fill="none" points="25.0,850.0 25.0,625.0 75.0,550.0 125.0,550.0 175.0,500.0 250.0,500.0 450.0,300.0 375.0,300.0 250.0,250.0 200.0,225.0 150.0,200.0 100.0,150.0 150.0,75.0 225.0,125.0 300.0,100.0 350.0,100.0 375.0,75.0 475.0,75.0 525.0,50.0 600.0,50.0 625.0,25.0 675.0,25.0 675.0,125.0 625.0,225.0 600.0,275.0 550.0,325.0 450.0,575.0 275.0,700.0 125.0,800.0 50.0,900.0" stroke="blue" stroke-width="2" /></svg>