<?xml version="1.0" encoding="utf-8" ?>
<svg baseProfile="full" height="1000" version="1.1" width="800" xmlns="http://www.w3.org/2000/svg" xmlns:ev="http://www.w3.org/2001/xml-events" xmlns:xlink="http://www.w3.org/1999/xlink"><defs /><polygon class="territory" fill="#f6f6ff" id="terr_A1" onmouseout="evt.target.setAttribute('opacity','1)');" onmouseover="evt.target.setAttribute('opacity', '0.5');" points="100.0,150.0 150.0,75.0 175.0,92.5 175.0,150.0 200.0,150.0 200.0,225.0 150.0,200.0" stroke="green" stroke-dasharray="1,1" /><text style="font-size:8px;" x="127.5" y="137.5">Borama</text><polygon class="territory" fill="#f6f6ff" id="terr_A2" onmouseout="evt.target.setAttribute('opacity','1)');" onmouseover="evt.target.setAttribute('opacity', '0.5');" points="175.0,92.5 225.0,125.0 300.0,100.0 300.0,150.0 250.0,150.0 200.0,150.0 175.0,150.0" stroke="green" stroke-dasharray="1,1" /><text style="font-size:8px;" x="215.0" y="145.0">Berbera</text><polygon class="territory" fill="#f6f6ff" id="terr_B1" onmouseout="evt.target.setAttribute('opacity','1)');" onmouseover="evt.target.setAttribute('opacity', '0.5');" points="200.0,225.0 200.0,150.0 250.0,150.0 250.0,175.0 300.0,225.0 275.0,260.0 250.0,250.0" stroke="green" stroke-dasharray="1,1" /><text style="font-size:8px;" x="215.0" y="212.5">Udweyne</text><polygon class="territory" fill="#f6f6ff" id="terr_B2" onmouseout="evt.target.setAttribute('opacity','1)');" onmouseover="evt.target.setAttribute('opacity', '0.5');" points="250.0,150.0 250.0,175.0 300.0,225.0 375.0,225.0 375.0,200.0 300.0,150.0" stroke="green" stroke-dasharray="1,1" /><text style="font-size:8px;" x="290.0" y="200.0">Burco</text><polygon class="territory" fill="#f6f6ff" id="terr_B3" onmouseout="evt.target.setAttribute('opacity','1)');" onmouseover="evt.target.setAttribute('opacity', '0.5');" points="275.0,260.0 300.0,225.0 375.0,225.0 400.0,250.0 400.0,300.0 375.0,300.0 350.0,290.0" stroke="green" stroke-dasharray="1,1" /><text style="font-size:8px;" x="327.5" y="262.5">Bohotle</text><polygon class="territory" fill="#f6f6ff" id="terr_C1" onmouseout="evt.target.setAttribute('opacity','1)');" onmouseover="evt.target.setAttribute('opacity', '0.5');" points="300.0,100.0 350.0,100.0 375.0,75.0 375.0,125.0 400.0,200.0 375.0,200.0 300.0,150.0" stroke="green" stroke-dasharray="1,1" /><text style="font-size:8px;" x="315.0" y="137.5">Xiis</text><polygon class="territory" fill="#f6f6ff" id="terr_C2" onmouseout="evt.target.setAttribute('opacity','1)');" onmouseover="evt.target.setAttribute('opacity', '0.5');" points="375.0,75.0 475.0,75.0 525.0,50.0 525.0,125.0 375.0,125.0" stroke="green" stroke-dasharray="1,1" /><text style="font-size:8px;" x="415.0" y="100.0">Erigavo</text><polygon class="territory" fill="#f6f6ff" id="terr_C3" onmouseout="evt.target.setAttribute('opacity','1)');" onmouseover="evt.target.setAttribute('opacity', '0.5');" points="375.0,125.0 525.0,125.0 525.0,175.0 525.0,200.0 475.0,200.0 425.0,200.0 400.0,200.0" stroke="green" stroke-dasharray="1,1" /><text style="font-size:8px;" x="427.5" y="162.5">Xin Galool</text><polygon class="territory" fill="#f6f6ff" id="terr_D1" onmouseout="evt.target.setAttribute('opacity','1)');" onmouseover="evt.target.setAttribute('opacity', '0.5');" points="525.0,50.0 600.0,50.0 600.0,100.0 675.0,125.0 625.0,225.0 600.0,175.0 525.0,175.0 525.0,125.0" stroke="green" stroke-dasharray="1,1" /><text style="font-size:8px;" x="540.0" y="125.0">Busaso</text><polygon class="territory" fill="#f6f6ff" id="terr_D2" onmouseout="evt.target.setAttribute('opacity','1)');" onmouseover="evt.target.setAttribute('opacity', '0.5');" points="600.0,50.0 625.0,25.0 675.0,25.0 675.0,125.0 600.0,100.0" stroke="green" stroke-dasharray="1,1" /><text style="font-size:8px;" x="615.0" y="75.0">Calula</text><polygon class="territory" fill="#f6f6ff" id="terr_D3" onmouseout="evt.target.setAttribute('opacity','1)');" onmouseover="evt.target.setAttribute('opacity', '0.5');" points="525.0,175.0 600.0,175.0 625.0,225.0 600.0,275.0 525.0,225.0 525.0,200.0" stroke="green" stroke-dasharray="1,1" /><text style="font-size:8px;" x="540.0" y="212.5">Dudo</text><polygon class="territory" fill="#f6f6ff" id="terr_E1" onmouseout="evt.target.setAttribute('opacity','1)');" onmouseover="evt.target.setAttribute('opacity', '0.5');" points="375.0,200.0 400.0,200.0 425.0,200.0 425.0,225.0 400.0,250.0 375.0,225.0" stroke="green" stroke-dasharray="1,1" /><text style="font-size:8px;" x="382.5" y="225.0">Baarka</text><polygon class="territory" fill="#f6f6ff" id="terr_E2" onmouseout="evt.target.setAttribute('opacity','1)');" onmouseover="evt.target.setAttribute('opacity', '0.5');" points="425.0,200.0 475.0,200.0 475.0,300.0 450.0,300.0 400.0,300.0 400.0,250.0 425.0,225.0" stroke="green" stroke-dasharray="1,1" /><text style="font-size:8px;" x="415.0" y="250.0">Lascanood</text><polygon class="territory" fill="#f6f6ff" id="terr_E3" onmouseout="evt.target.setAttribute('opacity','1)');" onmouseover="evt.target.setAttribute('opacity', '0.5');" points="475.0,200.0 525.0,200.0 525.0,225.0 500.0,300.0 487.5,300.0 475.0,300.0" stroke="green" stroke-dasharray="1,1" /><text style="font-size:8px;" x="477.5" y="250.0">Gaaroowe</text><polygon class="territory" fill="#f6f6ff" id="terr_E4" onmouseout="evt.target.setAttribute('opacity','1)');" onmouseover="evt.target.setAttribute('opacity', '0.5');" points="525.0,225.0 600.0,275.0 550.0,325.0 500.0,300.0" stroke="green" stroke-dasharray="1,1" /><text style="font-size:8px;" x="527.5" y="287.5">Eyl</text><polygon class="territory" fill="#f6f6ff" id="terr_F1" onmouseout="evt.target.setAttribute('opacity','1)');" onmouseover="evt.target.setAttribute('opacity', '0.5');" points="450.0,300.0 475.0,300.0 487.5,300.0 487.5,400.0 400.0,400.0 400.0,425.0 325.0,425.0 350.0,400.0" stroke="green" stroke-dasharray="1,1" /><text style="font-size:8px;" x="415.0" y="375.0">Galcaio</text><polygon class="territory" fill="#f6f6ff" id="terr_F2" onmouseout="evt.target.setAttribute('opacity','1)');" onmouseover="evt.target.setAttribute('opacity', '0.5');" points="487.5,300.0 500.0,300.0 550.0,325.0 520.0,400.0 487.5,400.0" stroke="green" stroke-dasharray="1,1" /><text style="font-size:8px;" x="490.0" y="350.0">Xamure</text><polygon class="territory" fill="#f6f6ff" id="terr_F3" onmouseout="evt.target.setAttribute('opacity','1)');" onmouseover="evt.target.setAttribute('opacity', '0.5');" points="400.0,400.0 487.5,400.0 520.0,400.0 500.0,450.0 425.0,450.0 400.0,450.0 400.0,425.0" stroke="green" stroke-dasharray="1,1" /><text style="font-size:8px;" x="440.0" y="425.0">Mirsaale</text><polygon class="territory" fill="#f6f6ff" id="terr_F4" onmouseout="evt.target.setAttribute('opacity','1)');" onmouseover="evt.target.setAttribute('opacity', '0.5');" points="425.0,450.0 500.0,450.0 460.0,550.0 425.0,550.0 425.0,475.0" stroke="green" stroke-dasharray="1,1" /><text style="font-size:8px;" x="440.0" y="500.0">Hobyo</text><polygon class="territory" fill="#f6f6ff" id="terr_G1" onmouseout="evt.target.setAttribute('opacity','1)');" onmouseover="evt.target.setAttribute('opacity', '0.5');" points="325.0,425.0 400.0,425.0 400.0,450.0 425.0,450.0 425.0,475.0 325.0,475.0 325.0,525.0 312.5,525.0 300.0,525.0 300.0,450.0" stroke="green" stroke-dasharray="1,1" /><text style="font-size:8px;" x="315.0" y="450.0">Dusa Marreb</text><polygon class="territory" fill="#f6f6ff" id="terr_G2" onmouseout="evt.target.setAttribute('opacity','1)');" onmouseover="evt.target.setAttribute('opacity', '0.5');" points="325.0,475.0 425.0,475.0 425.0,550.0 325.0,550.0 312.5,550.0 312.5,525.0 325.0,525.0" stroke="green" stroke-dasharray="1,1" /><text style="font-size:8px;" x="352.5" y="525.0">Ceel Buur</text><polygon class="territory" fill="#f6f6ff" id="terr_G3" onmouseout="evt.target.setAttribute('opacity','1)');" onmouseover="evt.target.setAttribute('opacity', '0.5');" points="325.0,550.0 425.0,550.0 460.0,550.0 450.0,575.0 415.0,600.0 325.0,575.0" stroke="green" stroke-dasharray="1,1" /><text style="font-size:8px;" x="365.0" y="575.0">Celdheere</text><polygon class="territory" fill="#f6f6ff" id="terr_H1" onmouseout="evt.target.setAttribute('opacity','1)');" onmouseover="evt.target.setAttribute('opacity', '0.5');" points="250.0,500.0 300.0,450.0 300.0,525.0 275.0,525.0 275.0,550.0 250.0,550.0 225.0,550.0 225.0,500.0" stroke="green" stroke-dasharray="1,1" /><text style="font-size:8px;" x="252.5" y="512.5">Beledweyne</text><polygon class="territory" fill="#f6f6ff" id="terr_H2" onmouseout="evt.target.setAttribute('opacity','1)');" onmouseover="evt.target.setAttribute('opacity', '0.5');" points="275.0,525.0 300.0,525.0 312.5,525.0 312.5,550.0 275.0,550.0" stroke="green" stroke-dasharray="1,1" /><text style="font-size:8px;" x="275.0" y="545.0">Muqakoori</text><polygon class="territory" fill="#f6f6ff" id="terr_H3" onmouseout="evt.target.setAttribute('opacity','1)');" onmouseover="evt.target.setAttribute('opacity', '0.5');" points="250.0,550.0 275.0,550.0 312.5,550.0 325.0,550.0 325.0,575.0 300.0,600.0 300.0,625.0 275.0,625.0 250.0,625.0 250.0,600.0" stroke="green" stroke-dasharray="1,1" /><text style="font-size:8px;" x="252.5" y="600.0">Bulobarde</text><polygon class="territory" fill="#f6f6ff" id="terr_I1" onmouseout="evt.target.setAttribute('opacity','1)');" onmouseover="evt.target.setAttribute('opacity', '0.5');" points="325.0,575.0 415.0,600.0 345.0,650.0 300.0,625.0 300.0,600.0" stroke="green" stroke-dasharray="1,1" /><text style="font-size:8px;" x="327.5" y="625.0">Cadale</text><polygon class="territory" fill="#f6f6ff" id="terr_I2" onmouseout="evt.target.setAttribute('opacity','1)');" onmouseover="evt.target.setAttribute('opacity', '0.5');" points="275.0,625.0 300.0,625.0 345.0,650.0 275.0,700.0" stroke="green" stroke-dasharray="1,1" /><text style="font-size:8px;" x="277.5" y="655.0">Jawhar</text><polygon class="territory" fill="#f6f6ff" id="terr_J1" onmouseout="evt.target.setAttribute('opacity','1)');" onmouseover="evt.target.setAttribute('opacity', '0.5');" points="125.0,550.0 175.0,500.0 200.0,550.0 200.0,600.0 150.0,600.0 150.0,575.0" stroke="green" stroke-dasharray="1,1" /><text style="font-size:8px;" x="152.5" y="575.0">Xuddur</text><polygon class="territory" fill="#f6f6ff" id="terr_J2" onmouseout="evt.target.setAttribute('opacity','1)');" onmouseover="evt.target.setAttribute('opacity', '0.5');" points="175.0,500.0 225.0,500.0 225.0,550.0 250.0,550.0 250.0,600.0 200.0,600.0 200.0,550.0" stroke="green" stroke-dasharray="1,1" /><text style="font-size:8px;" x="202.5" y="575.0">Taiglo</text><polygon class="territory" fill="#f6f6ff" id="terr_K1" onmouseout="evt.target.setAttribute('opacity','1)');" onmouseover="evt.target.setAttribute('opacity', '0.5');" points="125.0,625.0 150.0,625.0 175.0,650.0 175.0,700.0 150.0,725.0 137.5,700.0 125.0,675.0" stroke="green" stroke-dasharray="1,1" /><text style="font-size:8px;" x="127.5" y="662.5">Diinsoor</text><polygon class="territory" fill="#f6f6ff" id="terr_K2" onmouseout="evt.target.setAttribute('opacity','1)');" onmouseover="evt.target.setAttribute('opacity', '0.5');" points="150.0,625.0 150.0,600.0 200.0,600.0 250.0,600.0 250.0,625.0 250.0,650.0 175.0,650.0" stroke="green" stroke-dasharray="1,1" /><text style="font-size:8px;" x="177.5" y="637.5">Baidoa</text><polygon class="territory" fill="#f6f6ff" id="terr_K3" onmouseout="evt.target.setAttribute('opacity','1)');" onmouseover="evt.target.setAttribute('opacity', '0.5');" points="175.0,650.0 250.0,650.0 230.0,663.75 200.0,683.5 175.0,700.0" stroke="green" stroke-dasharray="1,1" /><text style="font-size:8px;" x="177.5" y="662.5">Buur Hakaba</text><polygon class="territory" fill="#f6f6ff" id="terr_L1" onmouseout="evt.target.setAttribute('opacity','1)');" onmouseover="evt.target.setAttribute('opacity', '0.5');" points="150.0,725.0 175.0,700.0 200.0,683.5 232.5,727.5 185.0,760.0" stroke="green" stroke-dasharray="1,1" /><text style="font-size:8px;" x="177.5" y="737.5">Haaway</text><polygon class="territory" fill="#f6f6ff" id="terr_L2" onmouseout="evt.target.setAttribute('opacity','1)');" onmouseover="evt.target.setAttribute('opacity', '0.5');" points="200.0,683.5 230.0,663.75 255.0,700.0 255.0,712.5 232.5,727.5" stroke="green" stroke-dasharray="1,1" /><text style="font-size:8px;" x="215.0" y="695.0">Marka</text><polygon class="territory" fill="#f6f6ff" id="terr_L3" onmouseout="evt.target.setAttribute('opacity','1)');" onmouseover="evt.target.setAttribute('opacity', '0.5');" points="230.0,663.75 250.0,650.0 250.0,625.0 275.0,625.0 275.0,700.0 255.0,700.0" stroke="green" stroke-dasharray="1,1" /><text style="font-size:8px;" x="235.0" y="670.0">Wanlaweyn</text><polygon class="territory" fill="#f6f6ff" id="terr_M1" onmouseout="evt.target.setAttribute('opacity','1)');" onmouseover="evt.target.setAttribute('opacity', '0.5');" points="25.0,625.0 75.0,550.0 75.0,625.0 75.0,675.0 25.0,675.0" stroke="green" stroke-dasharray="1,1" /><text style="font-size:8px;" x="27.5" y="650.0">El Beru Hagia</text><polygon class="territory" fill="#f6f6ff" id="terr_M2" onmouseout="evt.target.setAttribute('opacity','1)');" onmouseover="evt.target.setAttribute('opacity', '0.5');" points="75.0,550.0 125.0,550.0 150.0,575.0 150.0,600.0 150.0,625.0 125.0,625.0 75.0,625.0" stroke="green" stroke-dasharray="1,1" /><text style="font-size:8px;" x="90.0" y="600.0">Garbahaarey</text><polygon class="territory" fill="#f6f6ff" id="terr_M3" onmouseout="evt.target.setAttribute('opacity','1)');" onmouseover="evt.target.setAttribute('opacity', '0.5');" points="75.0,625.0 125.0,625.0 125.0,675.0 75.0,675.0" stroke="green" stroke-dasharray="1,1" /><text style="font-size:8px;" x="77.5" y="655.0">Bardheere</text><polygon class="territory" fill="#f6f6ff" id="terr_N1" onmouseout="evt.target.setAttribute('opacity','1)');" onmouseover="evt.target.setAttribute('opacity', '0.5');" points="25.0,675.0 75.0,675.0 125.0,675.0 137.5,700.0 100.0,725.0 50.0,725.0 25.0,725.0" stroke="green" stroke-dasharray="1,1" /><text style="font-size:8px;" x="65.0" y="700.0">Juba River</text><polygon class="territory" fill="#f6f6ff" id="terr_N2" onmouseout="evt.target.setAttribute('opacity','1)');" onmouseover="evt.target.setAttribute('opacity', '0.5');" points="100.0,725.0 137.5,700.0 150.0,725.0 185.0,760.0 125.0,800.0 100.0,775.0" stroke="green" stroke-dasharray="1,1" /><text style="font-size:8px;" x="115.0" y="762.5">Buaale</text><polygon class="territory" fill="#f6f6ff" id="terr_O1" onmouseout="evt.target.setAttribute('opacity','1)');" onmouseover="evt.target.setAttribute('opacity', '0.5');" points="25.0,725.0 50.0,725.0 50.0,775.0 87.5,850.0 50.0,900.0 25.0,850.0" stroke="green" stroke-dasharray="1,1" /><text style="font-size:8px;" x="40.0" y="850.0">Lag Badana</text><polygon class="territory" fill="#f6f6ff" id="terr_O2" onmouseout="evt.target.setAttribute('opacity','1)');" onmouseover="evt.target.setAttribute('opacity', '0.5');" points="50.0,725.0 100.0,725.0 100.0,775.0 50.0,775.0" stroke="green" stroke-dasharray="1,1" /><text style="font-size:8px;" x="52.5" y="762.5">Afmadow</text><polygon class="territory" fill="#f6f6ff" id="terr_O3" onmouseout="evt.target.setAttribute('opacity','1)');" onmouseover="evt.target.setAttribute('opacity', '0.5');" points="50.0,775.0 100.0,775.0 125.0,800.0 87.5,850.0" stroke="green" stroke-dasharray="1,1" /><text style="font-size:8px;" x="77.5" y="812.5">Kismaayo</text><polygon class="territory" fill="#f6f6ff" id="terr_P1" onmouseout="evt.target.setAttribute('opacity','1)');" onmouseover="evt.target.setAttribute('opacity', '0.5');" points="250.0,250.0 275.0,260.0 350.0,290.0 350.0,350.0 325.0,350.0 325.0,375.0 250.0,375.0" stroke="green" stroke-dasharray="1,1" /><text style="font-size:8px;" x="277.5" y="325.0">Degeh Bur</text><polygon class="territory" fill="#f6f6ff" id="terr_P2" onmouseout="evt.target.setAttribute('opacity','1)');" onmouseover="evt.target.setAttribute('opacity', '0.5');" points="250.0,375.0 325.0,375.0 325.0,350.0 350.0,350.0 350.0,400.0 325.0,425.0 300.0,450.0 250.0,500.0" stroke="green" stroke-dasharray="1,1" /><text style="font-size:8px;" x="265.0" y="425.0">Kebri Dehar</text><polygon class="territory" fill="#f6f6ff" id="terr_P3" onmouseout="evt.target.setAttribute('opacity','1)');" onmouseover="evt.target.setAttribute('opacity', '0.5');" points="350.0,290.0 375.0,300.0 400.0,300.0 450.0,300.0 350.0,400.0 350.0,350.0" stroke="green" stroke-dasharray="1,1" /><text style="font-size:8px;" x="365.0" y="337.5">Werder</text><polyline points="520.0,400.0 500.0,450.0" stroke="orange" stroke-dasharray="1,2" stroke-width="2" /><polyline points="525.0,175.0 525.0,200.0" stroke="orange" stroke-dasharray="1,2" stroke-width="2" /><polyline points="275.0,260.0 250.0,250.0" stroke="orange" stroke-dasharray="1,2" stroke-width="2" /><polyline points="475.0,300.0 450.0,300.0" stroke="orange" stroke-dasharray="1,2" stroke-width="2" /><polyline points="675.0,25.0 675.0,125.0" stroke="orange" stroke-dasharray="1,2" stroke-width="2" /><polyline points="125.0,800.0 87.5,850.0" stroke="orange" stroke-dasharray="1,2" stroke-width="2" /><polyline points="250.0,650.0 230.0,663.75" stroke="orange" stroke-dasharray="1,2" stroke-width="2" /><polyline points="400.0,200.0 375.0,200.0" stroke="orange" stroke-dasharray="1,2" stroke-width="2" /><polyline points="525.0,200.0 475.0,200.0" stroke="orange" stroke-dasharray="1,2" stroke-width="2" /><polyline points="550.0,325.0 500.0,300.0" stroke="orange" stroke-dasharray="1,2" stroke-width="2" /><polyline points="230.0,663.75 200.0,683.5" stroke="orange" stroke-dasharray="1,2" stroke-width="2" /><polyline points="250.0,550.0 250.0,600.0" stroke="orange" stroke-dasharray="1,2" stroke-width="2" /><polyline points="87.5,850.0 50.0,900.0" stroke="orange" stroke-dasharray="1,2" stroke-width="2" /><polyline points="550.0,325.0 520.0,400.0" stroke="orange" stroke-dasharray="1,2" stroke-width="2" /><polyline points="325.0,575.0 300.0,600.0" stroke="orange" stroke-dasharray="1,2" stroke-width="2" /><polyline points="300.0,150.0 250.0,150.0" stroke="orange" stroke-dasharray="1,2" stroke-width="2" /><polyline points="250.0,500.0 225.0,500.0" stroke="orange" stroke-dasharray="1,2" stroke-width="2" /><polyline points="225.0,125.0 175.0,92.5" stroke="orange" stroke-dasharray="1,2" stroke-width="2" /><polyline points="312.5,525.0 300.0,525.0" stroke="orange" stroke-dasharray="1,2" stroke-width="2" /><polyline points="50.0,900.0 25.0,850.0" stroke="orange" stroke-dasharray="1,2" stroke-width="2" /><polyline points="400.0,250.0 400.0,300.0" stroke="orange" stroke-dasharray="1,2" stroke-width="2" /><polyline points="255.0,700.0 255.0,712.5" stroke="orange" stroke-dasharray="1,2" stroke-width="2" /><polyline points="415.0,600.0 325.0,575.0" stroke="orange" stroke-dasharray="1,2" stroke-width="2" /><polyline points="500.0,300.0 487.5,300.0" stroke="orange" stroke-dasharray="1,2" stroke-width="2" /><polyline points="25.0,675.0 25.0,725.0" stroke="orange" stroke-dasharray="1,2" stroke-width="2" /><polyline points="600.0,50.0 525.0,50.0" stroke="orange" stroke-dasharray="1,2" stroke-width="2" /><polyline points="375.0,200.0 300.0,150.0" stroke="orange" stroke-dasharray="1,2" stroke-width="2" /><polyline points="312.5,525.0 312.5,550.0" stroke="orange" stroke-dasharray="1,2" stroke-width="2" /><polyline points="475.0,75.0 375.0,75.0" stroke="orange" stroke-dasharray="1,2" stroke-width="2" /><polyline points="425.0,475.0 425.0,550.0" stroke="orange" stroke-dasharray="1,2" stroke-width="2" /><polyline points="225.0,500.0 225.0,550.0" stroke="orange" stroke-dasharray="1,2" stroke-width="2" /><polyline points="400.0,425.0 400.0,450.0" stroke="orange" stroke-dasharray="1,2" stroke-width="2" /><polyline points="487.5,300.0 475.0,300.0" stroke="orange" stroke-dasharray="1,2" stroke-width="2" /><polyline points="175.0,500.0 125.0,550.0" stroke="orange" stroke-dasharray="1,2" stroke-width="2" /><polyline points="150.0,600.0 150.0,625.0" stroke="orange" stroke-dasharray="1,2" stroke-width="2" /><polyline points="175.0,92.5 150.0,75.0" stroke="orange" stroke-dasharray="1,2" stroke-width="2" /><polyline points="500.0,450.0 460.0,550.0" stroke="orange" stroke-dasharray="1,2" stroke-width="2" /><polyline points="75.0,675.0 25.0,675.0" stroke="orange" stroke-dasharray="1,2" stroke-width="2" /><polyline points="232.5,727.5 185.0,760.0" stroke="orange" stroke-dasharray="1,2" stroke-width="2" /><polyline points="400.0,250.0 375.0,225.0" stroke="orange" stroke-dasharray="1,2" stroke-width="2" /><polyline points="150.0,725.0 137.5,700.0" stroke="orange" stroke-dasharray="1,2" stroke-width="2" /><polyline points="200.0,150.0 200.0,225.0" stroke="orange" stroke-dasharray="1,2" stroke-width="2" /><polyline points="375.0,200.0 375.0,225.0" stroke="orange" stroke-dasharray="1,2" stroke-width="2" /><polyline points="400.0,425.0 325.0,425.0" stroke="orange" stroke-dasharray="1,2" stroke-width="2" /><polyline points="25.0,725.0 25.0,850.0" stroke="orange" stroke-dasharray="1,2" stroke-width="2" /><polyline points="460.0,550.0 450.0,575.0" stroke="orange" stroke-dasharray="1,2" stroke-width="2" /><polyline points="415.0,600.0 345.0,650.0" stroke="orange" stroke-dasharray="1,2" stroke-width="2" /><polyline points="300.0,600.0 300.0,625.0" stroke="orange" stroke-dasharray="1,2" stroke-width="2" /><polyline points="175.0,700.0 150.0,725.0" stroke="orange" stroke-dasharray="1,2" stroke-width="2" /><polyline points="325.0,550.0 312.5,550.0" stroke="orange" stroke-dasharray="1,2" stroke-width="2" /><polyline points="225.0,500.0 175.0,500.0" stroke="orange" stroke-dasharray="1,2" stroke-width="2" /><polyline points="300.0,450.0 300.0,525.0" stroke="orange" stroke-dasharray="1,2" stroke-width="2" /><polyline points="450.0,300.0 350.0,400.0" stroke="orange" stroke-dasharray="1,2" stroke-width="2" /><polyline points="460.0,550.0 425.0,550.0" stroke="orange" stroke-dasharray="1,2" stroke-width="2" /><polyline points="450.0,575.0 415.0,600.0" stroke="orange" stroke-dasharray="1,2" stroke-width="2" /><polyline points="275.0,625.0 275.0,700.0" stroke="orange" stroke-dasharray="1,2" stroke-width="2" /><polyline points="525.0,200.0 525.0,225.0" stroke="orange" stroke-dasharray="1,2" stroke-width="2" /><polyline points="300.0,450.0 250.0,500.0" stroke="orange" stroke-dasharray="1,2" stroke-width="2" /><polyline points="250.0,625.0 250.0,650.0" stroke="orange" stroke-dasharray="1,2" stroke-width="2" /><polyline points="25.0,625.0 25.0,675.0" stroke="orange" stroke-dasharray="1,2" stroke-width="2" /><polyline points="375.0,75.0 350.0,100.0" stroke="orange" stroke-dasharray="1,2" stroke-width="2" /><polyline points="400.0,300.0 375.0,300.0" stroke="orange" stroke-dasharray="1,2" stroke-width="2" /><polyline points="300.0,100.0 225.0,125.0" stroke="orange" stroke-dasharray="1,2" stroke-width="2" /><polyline points="125.0,800.0 100.0,775.0" stroke="orange" stroke-dasharray="1,2" stroke-width="2" /><polyline points="675.0,25.0 625.0,25.0" stroke="orange" stroke-dasharray="1,2" stroke-width="2" /><polyline points="425.0,450.0 425.0,475.0" stroke="orange" stroke-dasharray="1,2" stroke-width="2" /><polyline points="255.0,712.5 232.5,727.5" stroke="orange" stroke-dasharray="1,2" stroke-width="2" /><polyline points="200.0,600.0 150.0,600.0" stroke="orange" stroke-dasharray="1,2" stroke-width="2" /><polyline points="525.0,50.0 525.0,125.0" stroke="orange" stroke-dasharray="1,2" stroke-width="2" /><polyline points="185.0,760.0 125.0,800.0" stroke="orange" stroke-dasharray="1,2" stroke-width="2" /><polyline points="250.0,550.0 225.0,550.0" stroke="orange" stroke-dasharray="1,2" stroke-width="2" /><polyline points="300.0,100.0 300.0,150.0" stroke="orange" stroke-dasharray="1,2" stroke-width="2" /><polyline points="250.0,600.0 250.0,625.0" stroke="orange" stroke-dasharray="1,2" stroke-width="2" /><polyline points="125.0,625.0 125.0,675.0" stroke="orange" stroke-dasharray="1,2" stroke-width="2" /><polyline points="150.0,75.0 100.0,150.0" stroke="orange" stroke-dasharray="1,2" stroke-width="2" /><polyline points="350.0,400.0 325.0,425.0" stroke="orange" stroke-dasharray="1,2" stroke-width="2" /><polyline points="525.0,125.0 525.0,175.0" stroke="orange" stroke-dasharray="1,2" stroke-width="2" /><polyline points="525.0,50.0 475.0,75.0" stroke="orange" stroke-dasharray="1,2" stroke-width="2" /><polyline points="50.0,725.0 25.0,725.0" stroke="orange" stroke-dasharray="1,2" stroke-width="2" /><polyline points="275.0,700.0 255.0,700.0" stroke="orange" stroke-dasharray="1,2" stroke-width="2" /><polyline points="150.0,575.0 150.0,600.0" stroke="orange" stroke-dasharray="1,2" stroke-width="2" /><polyline points="125.0,675.0 75.0,675.0" stroke="orange" stroke-dasharray="1,2" stroke-width="2" /><polyline points="250.0,150.0 200.0,150.0" stroke="orange" stroke-dasharray="1,2" stroke-width="2" /><polyline points="150.0,575.0 125.0,550.0" stroke="orange" stroke-dasharray="1,2" stroke-width="2" /><polyline points="325.0,550.0 325.0,575.0" stroke="orange" stroke-dasharray="1,2" stroke-width="2" /><polyline points="100.0,725.0 100.0,775.0" stroke="orange" stroke-dasharray="1,2" stroke-width="2" /><polyline points="425.0,200.0 400.0,200.0" stroke="orange" stroke-dasharray="1,2" stroke-width="2" /><polyline points="185.0,760.0 150.0,725.0" stroke="orange" stroke-dasharray="1,2" stroke-width="2" /><polyline points="325.0,425.0 300.0,450.0" stroke="orange" stroke-dasharray="1,2" stroke-width="2" /><polyline points="125.0,550.0 75.0,550.0" stroke="orange" stroke-dasharray="1,2" stroke-width="2" /><polyline points="675.0,125.0 625.0,225.0" stroke="orange" stroke-dasharray="1,2" stroke-width="2" /><polyline points="200.0,683.5 175.0,700.0" stroke="orange" stroke-dasharray="1,2" stroke-width="2" /><polyline points="375.0,300.0 350.0,290.0" stroke="orange" stroke-dasharray="1,2" stroke-width="2" /><polyline points="275.0,625.0 250.0,625.0" stroke="orange" stroke-dasharray="1,2" stroke-width="2" /><polyline points="600.0,275.0 550.0,325.0" stroke="orange" stroke-dasharray="1,2" stroke-width="2" /><polyline points="100.0,725.0 50.0,725.0" stroke="orange" stroke-dasharray="1,2" stroke-width="2" /><polyline points="250.0,250.0 200.0,225.0" stroke="orange" stroke-dasharray="1,2" stroke-width="2" /><polyline points="250.0,600.0 200.0,600.0" stroke="orange" stroke-dasharray="1,2" stroke-width="2" /><polyline points="425.0,450.0 400.0,450.0" stroke="orange" stroke-dasharray="1,2" stroke-width="2" /><polyline points="300.0,625.0 275.0,625.0" stroke="orange" stroke-dasharray="1,2" stroke-width="2" /><polyline points="350.0,290.0 275.0,260.0" stroke="orange" stroke-dasharray="1,2" stroke-width="2" /><polyline points="150.0,200.0 100.0,150.0" stroke="orange" stroke-dasharray="1,2" stroke-width="2" /><polyline points="625.0,25.0 600.0,50.0" stroke="orange" stroke-dasharray="1,2" stroke-width="2" /><polyline points="250.0,250.0 250.0,375.0" stroke="orange" stroke-dasharray="1,2" stroke-width="2" /><polyline points="350.0,100.0 300.0,100.0" stroke="orange" stroke-dasharray="1,2" stroke-width="2" /><polyline points="345.0,650.0 275.0,700.0" stroke="orange" stroke-dasharray="1,2" stroke-width="2" /><polyline points="137.5,700.0 125.0,675.0" stroke="orange" stroke-dasharray="1,2" stroke-width="2" /><polyline points="150.0,625.0 125.0,625.0" stroke="orange" stroke-dasharray="1,2" stroke-width="2" /><polyline points="475.0,200.0 425.0,200.0" stroke="orange" stroke-dasharray="1,2" stroke-width="2" /><polyline points="250.0,375.0 250.0,500.0" stroke="orange" stroke-dasharray="1,2" stroke-width="2" /><polyline points="450.0,300.0 400.0,300.0" stroke="orange" stroke-dasharray="1,2" stroke-width="2" /><polyline points="200.0,225.0 150.0,200.0" stroke="orange" stroke-dasharray="1,2" stroke-width="2" /><polyline points="75.0,550.0 25.0,625.0" stroke="orange" stroke-dasharray="1,2" stroke-width="2" /><polyline points="625.0,225.0 600.0,275.0" stroke="orange" stroke-dasharray="1,2" stroke-width="2" /><polyline points="600.0,275.0 525.0,225.0" stroke="orange" stroke-dasharray="1,2" stroke-width="2" /><polygon fill="#0000aa" points="275.0,700.0 255.0,700.0 255.0,712.5" stroke="green" /><polygon fill="none" points="25.0,850.0 25.0,625.0 75.0,550.0 125.0,550.0 175.0,500.0 250.0,500.0 450.0,300.0 375.0,300.0 250.0,250.0 200.0,225.0 150.0,200.0 100.0,150.0 150.0,75.0 225.0,125.0 300.0,100.0 350.0,100.0 375.0,75.0 475.0,75.0 525.0,50.0 600.0,50.0 625.0,25.0 675.0,25.0 675.0,125.0 625.0,225.0 600.0,275.0 550.0,325.0 450.0,575.0 275.0,700.0 125.0,800.0 50.0,900.0" stroke="blue" stroke-width="2" /><text x="172.0" y="126.25">x</text><text x="197.0" y="192.5">x</text><text x="172.0" y="126.25">x</text><text x="222.0" y="155.0">x</text><text x="272.0" y="155.0">x</text><text x="297.0" y="130.0">x</text><text x="197.0" y="192.5">x</text><text x="222.0" y="155.0">x</text><text x="272.0" y="205.0">x</text><text x="284.5" y="247.5">x</text><text x="259.5" y="260.0">x</text><text x="272.0" y="155.0">x</text><text x="272.0" y="205.0">x</text><text x="334.5" y="230.0">x</text><text x="334.5" y="180.0">x</text><text x="372.0" y="217.5">x</text><text x="284.5" y="247.5">x</text><text x="334.5" y="230.0">x</text><text x="384.5" y="242.5">x</text><text x="397.0" y="280.0">x</text><text x="359.5" y="300.0">x</text><text x="309.5" y="280.0">x</text><text x="297.0" y="130.0">x</text><text x="334.5" y="180.0">x</text><text x="384.5" y="205.0">x</text><text x="372.0" y="105.0">x</text><text x="384.5" y="167.5">x</text><text x="372.0" y="105.0">x</text><text x="447.0" y="130.0">x</text><text x="522.0" y="92.5">x</text><text x="384.5" y="167.5">x</text><text x="447.0" y="130.0">x</text><text x="522.0" y="155.0">x</text><text x="522.0" y="192.5">x</text><text x="497.0" y="205.0">x</text><text x="447.0" y="205.0">x</text><text x="409.5" y="205.0">x</text><text x="522.0" y="92.5">x</text><text x="522.0" y="155.0">x</text><text x="634.5" y="117.5">x</text><text x="559.5" y="180.0">x</text><text x="634.5" y="117.5">x</text><text x="522.0" y="192.5">x</text><text x="559.5" y="180.0">x</text><text x="522.0" y="217.5">x</text><text x="559.5" y="255.0">x</text><text x="384.5" y="205.0">x</text><text x="409.5" y="205.0">x</text><text x="409.5" y="242.5">x</text><text x="384.5" y="242.5">x</text><text x="372.0" y="217.5">x</text><text x="397.0" y="280.0">x</text><text x="409.5" y="242.5">x</text><text x="447.0" y="205.0">x</text><text x="472.0" y="255.0">x</text><text x="459.5" y="305.0">x</text><text x="422.0" y="305.0">x</text><text x="497.0" y="205.0">x</text><text x="522.0" y="217.5">x</text><text x="472.0" y="255.0">x</text><text x="509.5" y="267.5">x</text><text x="490.75" y="305.0">x</text><text x="478.25" y="305.0">x</text><text x="509.5" y="267.5">x</text><text x="559.5" y="255.0">x</text><text x="522.0" y="317.5">x</text><text x="459.5" y="305.0">x</text><text x="478.25" y="305.0">x</text><text x="484.5" y="355.0">x</text><text x="440.75" y="405.0">x</text><text x="359.5" y="430.0">x</text><text x="334.5" y="417.5">x</text><text x="397.0" y="355.0">x</text><text x="490.75" y="305.0">x</text><text x="522.0" y="317.5">x</text><text x="484.5" y="355.0">x</text><text x="500.75" y="405.0">x</text><text x="440.75" y="405.0">x</text><text x="500.75" y="405.0">x</text><text x="459.5" y="455.0">x</text><text x="397.0" y="442.5">x</text><text x="459.5" y="455.0">x</text><text x="422.0" y="467.5">x</text><text x="422.0" y="517.5">x</text><text x="439.5" y="555.0">x</text><text x="309.5" y="442.5">x</text><text x="359.5" y="430.0">x</text><text x="397.0" y="442.5">x</text><text x="422.0" y="467.5">x</text><text x="372.0" y="480.0">x</text><text x="303.25" y="530.0">x</text><text x="297.0" y="492.5">x</text><text x="372.0" y="480.0">x</text><text x="422.0" y="517.5">x</text><text x="372.0" y="555.0">x</text><text x="315.75" y="555.0">x</text><text x="309.5" y="542.5">x</text><text x="372.0" y="555.0">x</text><text x="439.5" y="555.0">x</text><text x="367.0" y="592.5">x</text><text x="322.0" y="567.5">x</text><text x="272.0" y="480.0">x</text><text x="297.0" y="492.5">x</text><text x="272.0" y="542.5">x</text><text x="259.5" y="555.0">x</text><text x="222.0" y="530.0">x</text><text x="272.0" y="542.5">x</text><text x="303.25" y="530.0">x</text><text x="309.5" y="542.5">x</text><text x="290.75" y="555.0">x</text><text x="259.5" y="555.0">x</text><text x="290.75" y="555.0">x</text><text x="309.5" y="592.5">x</text><text x="284.5" y="630.0">x</text><text x="315.75" y="555.0">x</text><text x="322.0" y="567.5">x</text><text x="247.0" y="580.0">x</text><text x="247.0" y="617.5">x</text><text x="259.5" y="630.0">x</text><text x="309.5" y="592.5">x</text><text x="367.0" y="592.5">x</text><text x="319.5" y="642.5">x</text><text x="272.0" y="667.5">x</text><text x="284.5" y="630.0">x</text><text x="319.5" y="642.5">x</text><text x="134.5" y="567.5">x</text><text x="172.0" y="605.0">x</text><text x="184.5" y="530.0">x</text><text x="184.5" y="530.0">x</text><text x="222.0" y="530.0">x</text><text x="247.0" y="580.0">x</text><text x="222.0" y="605.0">x</text><text x="134.5" y="630.0">x</text><text x="159.5" y="642.5">x</text><text x="172.0" y="680.0">x</text><text x="159.5" y="717.5">x</text><text x="140.75" y="717.5">x</text><text x="128.25" y="692.5">x</text><text x="122.0" y="655.0">x</text><text x="147.0" y="617.5">x</text><text x="172.0" y="605.0">x</text><text x="222.0" y="605.0">x</text><text x="247.0" y="617.5">x</text><text x="247.0" y="642.5">x</text><text x="209.5" y="655.0">x</text><text x="159.5" y="642.5">x</text><text x="172.0" y="680.0">x</text><text x="209.5" y="655.0">x</text><text x="237.0" y="661.875">x</text><text x="212.0" y="678.625">x</text><text x="184.5" y="696.75">x</text><text x="164.5" y="747.5">x</text><text x="159.5" y="717.5">x</text><text x="184.5" y="696.75">x</text><text x="213.25" y="710.5">x</text><text x="213.25" y="710.5">x</text><text x="212.0" y="678.625">x</text><text x="239.5" y="686.875">x</text><text x="247.0" y="642.5">x</text><text x="237.0" y="661.875">x</text><text x="259.5" y="630.0">x</text><text x="272.0" y="667.5">x</text><text x="239.5" y="686.875">x</text><text x="72.0" y="592.5">x</text><text x="72.0" y="655.0">x</text><text x="47.0" y="680.0">x</text><text x="72.0" y="592.5">x</text><text x="134.5" y="567.5">x</text><text x="147.0" y="617.5">x</text><text x="134.5" y="630.0">x</text><text x="97.0" y="630.0">x</text><text x="72.0" y="655.0">x</text><text x="97.0" y="630.0">x</text><text x="122.0" y="655.0">x</text><text x="97.0" y="680.0">x</text><text x="47.0" y="680.0">x</text><text x="97.0" y="680.0">x</text><text x="128.25" y="692.5">x</text><text x="115.75" y="717.5">x</text><text x="72.0" y="730.0">x</text><text x="34.5" y="730.0">x</text><text x="115.75" y="717.5">x</text><text x="140.75" y="717.5">x</text><text x="164.5" y="747.5">x</text><text x="109.5" y="792.5">x</text><text x="97.0" y="755.0">x</text><text x="34.5" y="730.0">x</text><text x="47.0" y="755.0">x</text><text x="65.75" y="817.5">x</text><text x="72.0" y="730.0">x</text><text x="97.0" y="755.0">x</text><text x="72.0" y="780.0">x</text><text x="47.0" y="755.0">x</text><text x="65.75" y="817.5">x</text><text x="72.0" y="780.0">x</text><text x="109.5" y="792.5">x</text><text x="259.5" y="260.0">x</text><text x="309.5" y="280.0">x</text><text x="347.0" y="325.0">x</text><text x="284.5" y="380.0">x</text><text x="284.5" y="380.0">x</text><text x="347.0" y="380.0">x</text><text x="272.0" y="480.0">x</text><text x="309.5" y="442.5">x</text><text x="334.5" y="417.5">x</text><text x="347.0" y="325.0">x</text><text x="347.0" y="380.0">x</text><text x="359.5" y="300.0">x</text><text x="422.0" y="305.0">x</text><text x="397.0" y="355.0">x</text></svg>