<?xml version="1.0" encoding="utf-8" ?>
<svg baseProfile="full" height="1000" version="1.1" width="800" xmlns="http://www.w3.org/2000/svg" xmlns:ev="http://www.w3.org/2001/xml-events" xmlns:xlink="http://www.w3.org/1999/xlink"><g><defs></defs><linearGradient id="white-grad" x1="0" y1="0" x2="0" y2="100%"><stop offset="0" stop-color="white"></stop><stop offset="0.5" stop-color="white"></stop><stop offset="1" stop-color="white"></stop></linearGradient><linearGradient id="white-grad" x1="0" y1="0" x2="0" y2="100%"><stop offset="0" stop-color="white"></stop><stop offset="0.5" stop-color="white"></stop><stop offset="1" stop-color="white"></stop></linearGradient><linearGradient id="lightyellow-grad" x1="0" y1="0" x2="0" y2="100%"><stop offset="0" stop-color="white"></stop><stop offset="0.5" stop-color="lightyellow"></stop><stop offset="1" stop-color="white"></stop></linearGradient><linearGradient id="white-grad" x1="0" y1="0" x2="0" y2="100%"><stop offset="0" stop-color="white"></stop><stop offset="0.5" stop-color="white"></stop><stop offset="1" stop-color="white"></stop></linearGradient><linearGradient id="lightyellow-grad" x1="0" y1="0" x2="0" y2="100%"><stop offset="0" stop-color="white"></stop><stop offset="0.5" stop-color="lightyellow"></stop><stop offset="1" stop-color="white"></stop></linearGradient><linearGradient id="lightyellow-grad" x1="0" y1="0" x2="0" y2="100%"><stop offset="0" stop-color="white"></stop><stop offset="0.5" stop-color="lightyellow"></stop><stop offset="1" stop-color="white"></stop></linearGradient><linearGradient id="white-grad" x1="0" y1="0" x2="0" y2="100%"><stop offset="0" stop-color="white"></stop><stop offset="0.5" stop-color="white"></stop><stop offset="1" stop-color="white"></stop></linearGradient><linearGradient id="#fa6-grad" x1="0" y1="0" x2="0" y2="100%"><stop offset="0" stop-color="white"></stop><stop offset="0.5" stop-color="#fa6"></stop><stop offset="1" stop-color="white"></stop></linearGradient><linearGradient id="#fa6-grad" x1="0" y1="0" x2="0" y2="100%"><stop offset="0" stop-color="white"></stop><stop offset="0.5" stop-color="#fa6"></stop><stop offset="1" stop-color="white"></stop></linearGradient><linearGradient id="white-grad" x1="0" y1="0" x2="0" y2="100%"><stop offset="0" stop-color="white"></stop><stop offset="0.5" stop-color="white"></stop><stop offset="1" stop-color="white"></stop></linearGradient><linearGradient id="#fa6-grad" x1="0" y1="0" x2="0" y2="100%"><stop offset="0" stop-color="white"></stop><stop offset="0.5" stop-color="#fa6"></stop><stop offset="1" stop-color="white"></stop></linearGradient><linearGradient id="white-grad" x1="0" y1="0" x2="0" y2="100%"><stop offset="0" stop-color="white"></stop><stop offset="0.5" stop-color="white"></stop><stop offset="1" stop-color="white"></stop></linearGradient><linearGradient id="white-grad" x1="0" y1="0" x2="0" y2="100%"><stop offset="0" stop-color="white"></stop><stop offset="0.5" stop-color="white"></stop><stop offset="1" stop-color="white"></stop></linearGradient><linearGradient id="white-grad" x1="0" y1="0" x2="0" y2="100%"><stop offset="0" stop-color="white"></stop><stop offset="0.5" stop-color="white"></stop><stop offset="1" stop-color="white"></stop></linearGradient><linearGradient id="white-grad" x1="0" y1="0" x2="0" y2="100%"><stop offset="0" stop-color="white"></stop><stop offset="0.5" stop-color="white"></stop><stop offset="1" stop-color="white"></stop></linearGradient><linearGradient id="white-grad" x1="0" y1="0" x2="0" y2="100%"><stop offset="0" stop-color="white"></stop><stop offset="0.5" stop-color="white"></stop><stop offset="1" stop-color="white"></stop></linearGradient><linearGradient id="white-grad" x1="0" y1="0" x2="0" y2="100%"><stop offset="0" stop-color="white"></stop><stop offset="0.5" stop-color="white"></stop><stop offset="1" stop-color="white"></stop></linearGradient><linearGradient id="white-grad" x1="0" y1="0" x2="0" y2="100%"><stop offset="0" stop-color="white"></stop><stop offset="0.5" stop-color="white"></stop><stop offset="1" stop-color="white"></stop></linearGradient><linearGradient id="lightblue-grad" x1="0" y1="0" x2="0" y2="100%"><stop offset="0" stop-color="white"></stop><stop offset="0.5" stop-color="lightblue"></stop><stop offset="1" stop-color="white"></stop></linearGradient><linearGradient id="white-grad" x1="0" y1="0" x2="0" y2="100%"><stop offset="0" stop-color="white"></stop><stop offset="0.5" stop-color="white"></stop><stop offset="1" stop-color="white"></stop></linearGradient><linearGradient id="lightblue-grad" x1="0" y1="0" x2="0" y2="100%"><stop offset="0" stop-color="white"></stop><stop offset="0.5" stop-color="lightblue"></stop><stop offset="1" stop-color="white"></stop></linearGradient><linearGradient id="white-grad" x1="0" y1="0" x2="0" y2="100%"><stop offset="0" stop-color="white"></stop><stop offset="0.5" stop-color="white"></stop><stop offset="1" stop-color="white"></stop></linearGradient><linearGradient id="lightblue-grad" x1="0" y1="0" x2="0" y2="100%"><stop offset="0" stop-color="white"></stop><stop offset="0.5" stop-color="lightblue"></stop><stop offset="1" stop-color="white"></stop></linearGradient><linearGradient id="white-grad" x1="0" y1="0" x2="0" y2="100%"><stop offset="0" stop-color="white"></stop><stop offset="0.5" stop-color="white"></stop><stop offset="1" stop-color="white"></stop></linearGradient><linearGradient id="white-grad" x1="0" y1="0" x2="0" y2="100%"><stop offset="0" stop-color="white"></stop><stop offset="0.5" stop-color="white"></stop><stop offset="1" stop-color="white"></stop></linearGradient><linearGradient id="white-grad" x1="0" y1="0" x2="0" y2="100%"><stop offset="0" stop-color="white"></stop><stop offset="0.5" stop-color="white"></stop><stop offset="1" stop-color="white"></stop></linearGradient><linearGradient id="white-grad" x1="0" y1="0" x2="0" y2="100%"><stop offset="0" stop-color="white"></stop><stop offset="0.5" stop-color="white"></stop><stop offset="1" stop-color="white"></stop></linearGradient><linearGradient id="violet-grad" x1="0" y1="0" x2="0" y2="100%"><stop offset="0" stop-color="white"></stop><stop offset="0.5" stop-color="violet"></stop><stop offset="1" stop-color="white"></stop></linearGradient><linearGradient id="white-grad" x1="0" y1="0" x2="0" y2="100%"><stop offset="0" stop-color="white"></stop><stop offset="0.5" stop-color="white"></stop><stop offset="1" stop-color="white"></stop></linearGradient><linearGradient id="violet-grad" x1="0" y1="0" x2="0" y2="100%"><stop offset="0" stop-color="white"></stop><stop offset="0.5" stop-color="violet"></stop><stop offset="1" stop-color="white"></stop></linearGradient><linearGradient id="white-grad" x1="0" y1="0" x2="0" y2="100%"><stop offset="0" stop-color="white"></stop><stop offset="0.5" stop-color="white"></stop><stop offset="1" stop-color="white"></stop></linearGradient><linearGradient id="violet-grad" x1="0" y1="0" x2="0" y2="100%"><stop offset="0" stop-color="white"></stop><stop offset="0.5" stop-color="violet"></stop><stop offset="1" stop-color="white"></stop></linearGradient><linearGradient id="white-grad" x1="0" y1="0" x2="0" y2="100%"><stop offset="0" stop-color="white"></stop><stop offset="0.5" stop-color="white"></stop><stop offset="1" stop-color="white"></stop></linearGradient><linearGradient id="white-grad" x1="0" y1="0" x2="0" y2="100%"><stop offset="0" stop-color="white"></stop><stop offset="0.5" stop-color="white"></stop><stop offset="1" stop-color="white"></stop></linearGradient><linearGradient id="turquoise-grad" x1="0" y1="0" x2="0" y2="100%"><stop offset="0" stop-color="white"></stop><stop offset="0.5" stop-color="turquoise"></stop><stop offset="1" stop-color="white"></stop></linearGradient><linearGradient id="white-grad" x1="0" y1="0" x2="0" y2="100%"><stop offset="0" stop-color="white"></stop><stop offset="0.5" stop-color="white"></stop><stop offset="1" stop-color="white"></stop></linearGradient><linearGradient id="white-grad" x1="0" y1="0" x2="0" y2="100%"><stop offset="0" stop-color="white"></stop><stop offset="0.5" stop-color="white"></stop><stop offset="1" stop-color="white"></stop></linearGradient><linearGradient id="white-grad" x1="0" y1="0" x2="0" y2="100%"><stop offset="0" stop-color="white"></stop><stop offset="0.5" stop-color="white"></stop><stop offset="1" stop-color="white"></stop></linearGradient><linearGradient id="white-grad" x1="0" y1="0" x2="0" y2="100%"><stop offset="0" stop-color="white"></stop><stop offset="0.5" stop-color="white"></stop><stop offset="1" stop-color="white"></stop></linearGradient><linearGradient id="lightpink-grad" x1="0" y1="0" x2="0" y2="100%"><stop offset="0" stop-color="white"></stop><stop offset="0.5" stop-color="lightpink"></stop><stop offset="1" stop-color="white"></stop></linearGradient><linearGradient id="white-grad" x1="0" y1="0" x2="0" y2="100%"><stop offset="0" stop-color="white"></stop><stop offset="0.5" stop-color="white"></stop><stop offset="1" stop-color="white"></stop></linearGradient><linearGradient id="white-grad" x1="0" y1="0" x2="0" y2="100%"><stop offset="0" stop-color="white"></stop><stop offset="0.5" stop-color="white"></stop><stop offset="1" stop-color="white"></stop></linearGradient><linearGradient id="lightpink-grad" x1="0" y1="0" x2="0" y2="100%"><stop offset="0" stop-color="white"></stop><stop offset="0.5" stop-color="lightpink"></stop><stop offset="1" stop-color="white"></stop></linearGradient><linearGradient id="lightpink-grad" x1="0" y1="0" x2="0" y2="100%"><stop offset="0" stop-color="white"></stop><stop offset="0.5" stop-color="lightpink"></stop><stop offset="1" stop-color="white"></stop></linearGradient><linearGradient id="lightgray-grad" x1="0" y1="0" x2="0" y2="100%"><stop offset="0" stop-color="white"></stop><stop offset="0.5" stop-color="lightgray"></stop><stop offset="1" stop-color="white"></stop></linearGradient><linearGradient id="lightgray-grad" x1="0" y1="0" x2="0" y2="100%"><stop offset="0" stop-color="white"></stop><stop offset="0.5" stop-color="lightgray"></stop><stop offset="1" stop-color="white"></stop></linearGradient><linearGradient id="lightgray-grad" x1="0" y1="0" x2="0" y2="100%"><stop offset="0" stop-color="white"></stop><stop offset="0.5" stop-color="lightgray"></stop><stop offset="1" stop-color="white"></stop></linearGradient><linearGradient id="blue-grad" x1="0" y1="0" x2="0" y2="100%"><stop offset="0" stop-color="white"></stop><stop offset="0.5" stop-color="blue"></stop><stop offset="1" stop-color="white"></stop></linearGradient></g><polygon points="68,102 102,51 119,62.9 119,102 136,102 136,153 102,136" fill="#f0f9e7" stroke="green" id="A1" class="territory territory_poly territory_A1"></polygon><text x="90.1" y="93.5" style="font-size:8px;" id="A1" class="territory territory_text territory_A1">Bor</text><polygon points="119,62.9 153,85 204,68 204,102 170,102 136,102 119,102" fill="#f0f9e7" stroke="green" id="A2" class="territory territory_poly territory_A2"></polygon><text x="149.6" y="98.6" style="font-size:8px;" id="A2" class="territory territory_text territory_A2">Ber</text><polygon points="136,153 136,102 170,102 170,119 204,153 187,176.79999999999998 170,170" fill="#f0f9e7" stroke="green" id="B1" class="territory territory_poly territory_B1"></polygon><text x="149.6" y="144.5" style="font-size:8px;" id="B1" class="territory territory_text territory_unit territory_B1">★ Udw</text><polygon points="170,102 170,119 204,153 255,153 255,136 204,102" fill="#f0f9e7" stroke="green" id="B2" class="territory territory_poly territory_B2"></polygon><text x="200.6" y="136" style="font-size:8px;" id="B2" class="territory territory_text territory_B2">Bur</text><polygon points="187,176.79999999999998 204,153 255,153 272,170 272,204 255,204 238,197.2" fill="#f0f9e7" stroke="green" id="B3" class="territory territory_poly territory_B3"></polygon><text x="226.1" y="178.5" style="font-size:8px;" id="B3" class="territory territory_text territory_unit territory_B3">★ Boh</text><polygon points="204,68 238,68 255,51 255,85 272,136 255,136 204,102" fill="#f0f9e7" stroke="green" id="C1" class="territory territory_poly territory_C1"></polygon><text x="217.6" y="93.5" style="font-size:8px;" id="C1" class="territory territory_text territory_unit territory_C1">★ Ada</text><polygon points="255,51 323,51 357,34 357,85 255,85" fill="#f0f9e7" stroke="green" id="C2" class="territory territory_poly territory_C2"></polygon><text x="285.59999999999997" y="68" style="font-size:8px;" id="C2" class="territory territory_text territory_C2">Eri</text><polygon points="255,85 357,85 357,119 357,136 323,136 289,136 272,136" fill="#f0f9e7" stroke="green" id="C3" class="territory territory_poly territory_C3"></polygon><text x="294.09999999999997" y="110.5" style="font-size:8px;" id="C3" class="territory territory_text territory_unit territory_C3">★ Xin</text><polygon points="357,34 408,34 408,68 408,119 357,119 357,85" fill="#f0f9e7" stroke="green" id="D1" class="territory territory_poly territory_D1"></polygon><text x="370.59999999999997" y="85" style="font-size:8px;" id="D1" class="territory territory_text territory_unit territory_D1">★ Bus</text><polygon points="408,34 425,17 459,17 459,85 408,68" fill="#f0f9e7" stroke="green" id="D2" class="territory territory_poly territory_D2"></polygon><text x="421.59999999999997" y="51" style="font-size:8px;" id="D2" class="territory territory_text territory_D2">Cal</text><polygon points="357,119 408,119 425,153 408,187 357,153 357,136" fill="#f0f9e7" stroke="green" id="D3" class="territory territory_poly territory_D3"></polygon><text x="370.59999999999997" y="144.5" style="font-size:8px;" id="D3" class="territory territory_text territory_unit territory_D3">★ Dud</text><polygon points="408,119 425,153 459,85 408,68" fill="#f0f9e7" stroke="green" id="D4" class="territory territory_poly territory_D4"></polygon><text x="421.59999999999997" y="102" style="font-size:8px;" id="D4" class="territory territory_text territory_D4">Xaa</text><polygon points="255,136 272,136 289,136 289,153 272,170 255,153" fill="#f0f9e7" stroke="green" id="E1" class="territory territory_poly territory_E1"></polygon><text x="263.5" y="153" style="font-size:8px;" id="E1" class="territory territory_text territory_E1">Baa</text><polygon points="289,136 323,136 323,204 306,204 272,204 272,170 289,153" fill="#f0f9e7" stroke="green" id="E2" class="territory territory_poly territory_E2"></polygon><text x="285.59999999999997" y="170" style="font-size:8px;" id="E2" class="territory territory_text territory_E2">Las</text><polygon points="323,136 357,136 357,153 340,204 331.5,204 323,204" fill="#f0f9e7" stroke="green" id="E3" class="territory territory_poly territory_E3"></polygon><text x="328.09999999999997" y="170" style="font-size:8px;" id="E3" class="territory territory_text territory_E3">Gaa</text><polygon points="357,153 408,187 374,221 340,204" fill="#f0f9e7" stroke="green" id="E4" class="territory territory_poly territory_E4"></polygon><text x="362.09999999999997" y="195.5" style="font-size:8px;" id="E4" class="territory territory_text territory_E4">Eyl</text><polygon points="306,204 323,204 331.5,204 331.5,272 272,272 272,289 221,289 238,272" fill="#f0f9e7" stroke="green" id="F1" class="territory territory_poly territory_F1"></polygon><text x="285.59999999999997" y="255" style="font-size:8px;" id="F1" class="territory territory_text territory_F1">Gal</text><polygon points="331.5,204 340,204 374,221 353.59999999999997,272 331.5,272" fill="#f0f9e7" stroke="green" id="F2" class="territory territory_poly territory_F2"></polygon><text x="336.59999999999997" y="238" style="font-size:8px;" id="F2" class="territory territory_text territory_F2">Xam</text><polygon points="272,272 331.5,272 353.59999999999997,272 340,306 289,306 272,306 272,289" fill="#f0f9e7" stroke="green" id="F3" class="territory territory_poly territory_F3"></polygon><text x="302.59999999999997" y="289" style="font-size:8px;" id="F3" class="territory territory_text territory_unit territory_F3">★ Mir</text><polygon points="289,306 340,306 312.8,374 289,374 289,323" fill="#f0f9e7" stroke="green" id="F4" class="territory territory_poly territory_F4"></polygon><text x="302.59999999999997" y="340" style="font-size:8px;" id="F4" class="territory territory_text territory_F4">Hob</text><polygon points="221,289 272,289 272,306 289,306 289,323 221,323 221,357 212.5,357 204,357 204,306" fill="#f0f9e7" stroke="green" id="G1" class="territory territory_poly territory_G1"></polygon><text x="217.6" y="306" style="font-size:8px;" id="G1" class="territory territory_text territory_unit territory_G1">★ Dus</text><polygon points="221,323 289,323 289,374 221,374 212.5,374 212.5,357 221,357" fill="#f0f9e7" stroke="green" id="G2" class="territory territory_poly territory_G2"></polygon><text x="243.1" y="357" style="font-size:8px;" id="G2" class="territory territory_text territory_G2">Cee</text><polygon points="221,374 289,374 312.8,374 306,391 282.2,408 221,391" fill="#f0f9e7" stroke="green" id="G3" class="territory territory_poly territory_G3"></polygon><text x="251.6" y="391" style="font-size:8px;" id="G3" class="territory territory_text territory_unit territory_G3">★ Cel</text><polygon points="170,340 204,306 204,357 187,357 187,374 170,374 153,374 153,340" fill="#f0f9e7" stroke="green" id="H1" class="territory territory_poly territory_H1"></polygon><text x="175.1" y="348.5" style="font-size:8px;" id="H1" class="territory territory_text territory_H1">Bel</text><polygon points="187,357 204,357 212.5,357 212.5,374 187,374" fill="#f0f9e7" stroke="green" id="H2" class="territory territory_poly territory_H2"></polygon><text x="190.4" y="370.59999999999997" style="font-size:8px;" id="H2" class="territory territory_text territory_H2">Muq</text><polygon points="170,374 187,374 212.5,374 221,374 221,391 204,408 204,425 187,425 170,425 170,408" fill="#f0f9e7" stroke="green" id="H3" class="territory territory_poly territory_H3"></polygon><text x="175.1" y="408" style="font-size:8px;" id="H3" class="territory territory_text territory_H3">Bul</text><polygon points="221,391 282.2,408 234.6,442 204,425 204,408" fill="#f0f9e7" stroke="green" id="I1" class="territory territory_poly territory_I1"></polygon><text x="226.1" y="425" style="font-size:8px;" id="I1" class="territory territory_text territory_I1">Cad</text><polygon points="187,425 204,425 234.6,442 187,476" fill="#f0f9e7" stroke="green" id="I2" class="territory territory_poly territory_I2"></polygon><text x="192.1" y="445.4" style="font-size:8px;" id="I2" class="territory territory_text territory_unit territory_I2">★ Jaw</text><polygon points="85,374 119,340 136,374 136,408 102,408 102,391" fill="#f0f9e7" stroke="green" id="J1" class="territory territory_poly territory_J1"></polygon><text x="107.1" y="391" style="font-size:8px;" id="J1" class="territory territory_text territory_J1">Xud</text><polygon points="119,340 153,340 153,374 170,374 170,408 136,408 136,374" fill="#f0f9e7" stroke="green" id="J2" class="territory territory_poly territory_J2" opacity="1.0"></polygon><text x="141.1" y="391" style="font-size:8px;" id="J2" class="territory territory_text territory_unit territory_J2">★ Tai</text><polygon points="85,425 102,425 119,442 119,476 102,493 93.5,476 85,459" fill="#f0f9e7" stroke="green" id="K1" class="territory territory_poly territory_K1" opacity="1.0"></polygon><text x="90.1" y="450.5" style="font-size:8px;" id="K1" class="territory territory_text territory_K1">Dii</text><polygon points="102,425 102,408 136,408 170,408 170,425 170,442 119,442" fill="#f0f9e7" stroke="green" id="K2" class="territory territory_poly territory_K2"></polygon><text x="124.1" y="433.5" style="font-size:8px;" id="K2" class="territory territory_text territory_unit territory_K2">★ Bai</text><polygon points="119,442 170,442 156.4,451.34999999999997 136,464.78 119,476" fill="#f0f9e7" stroke="green" id="K3" class="territory territory_poly territory_K3"></polygon><text x="124.1" y="450.5" style="font-size:8px;" id="K3" class="territory territory_text territory_K3">Buu</text><polygon points="102,493 119,476 136,464.78 158.1,494.7 125.8,516.8" fill="#f0f9e7" stroke="green" id="L1" class="territory territory_poly territory_L1"></polygon><text x="124.1" y="501.5" style="font-size:8px;" id="L1" class="territory territory_text territory_L1">Haa</text><polygon points="136,464.78 156.4,451.34999999999997 173.4,476 173.4,484.5 158.1,494.7" fill="#f0f9e7" stroke="green" id="L2" class="territory territory_poly territory_L2"></polygon><text x="142.79999999999998" y="472.59999999999997" style="font-size:8px;" id="L2" class="territory territory_text territory_unit territory_L2">★ Mar</text><polygon points="156.4,451.34999999999997 170,442 170,425 187,425 187,476 173.4,476" fill="#f0f9e7" stroke="green" id="L3" class="territory territory_poly territory_L3"></polygon><text x="163.2" y="455.59999999999997" style="font-size:8px;" id="L3" class="territory territory_text territory_L3">Wan</text><polygon points="17,425 51,374 51,425 51,459 17,459" fill="#f0f9e7" stroke="green" id="M1" class="territory territory_poly territory_M1" opacity="1.0"></polygon><text x="22.099999999999998" y="442" style="font-size:8px;" id="M1" class="territory territory_text territory_M1">ElB</text><polygon points="51,374 85,374 102,391 102,408 102,425 85,425 51,425" fill="#f0f9e7" stroke="green" id="M2" class="territory territory_poly territory_M2" opacity="1.0"></polygon><text x="64.6" y="408" style="font-size:8px;" id="M2" class="territory territory_text territory_M2">Gar</text><polygon points="51,425 85,425 85,459 51,459" fill="#f0f9e7" stroke="green" id="M3" class="territory territory_poly territory_M3" opacity="1.0"></polygon><text x="56.1" y="445.4" style="font-size:8px;" id="M3" class="territory territory_text territory_M3">Bar</text><polygon points="17,459 51,459 85,459 93.5,476 68,493 34,493 17,493" fill="#f0f9e7" stroke="green" id="N1" class="territory territory_poly territory_N1" opacity="1.0"></polygon><text x="47.6" y="476" style="font-size:8px;" id="N1" class="territory territory_text territory_unit territory_N1">★ Jub</text><polygon points="68,493 93.5,476 102,493 125.8,516.8 85,544 68,527" fill="#f0f9e7" stroke="green" id="N2" class="territory territory_poly territory_N2"></polygon><text x="81.6" y="518.5" style="font-size:8px;" id="N2" class="territory territory_text territory_N2">Bua</text><polygon points="17,493 34,493 34,527 59.5,578 34,612 17,578" fill="#f0f9e7" stroke="green" id="O1" class="territory territory_poly territory_O1"></polygon><text x="30.599999999999998" y="578" style="font-size:8px;" id="O1" class="territory territory_text territory_O1">Lag</text><polygon points="34,493 68,493 68,527 34,527" fill="#f0f9e7" stroke="green" id="O2" class="territory territory_poly territory_O2"></polygon><text x="39.1" y="518.5" style="font-size:8px;" id="O2" class="territory territory_text territory_unit territory_O2">★ Afm</text><polygon points="34,527 68,527 85,544 59.5,578" fill="#f0f9e7" stroke="green" id="O3" class="territory territory_poly territory_O3"></polygon><text x="51" y="552.5" style="font-size:8px;" id="O3" class="territory territory_text territory_unit territory_O3">★ Kis</text><polygon points="170,170 187,176.79999999999998 238,197.2 238,238 221,238 221,255 170,255" fill="#f0f9e7" stroke="green" id="P1" class="territory territory_poly territory_P1"></polygon><text x="192.1" y="221" style="font-size:8px;" id="P1" class="territory territory_text territory_unit territory_P1">★ Deg</text><polygon points="170,255 221,255 221,238 238,238 238,272 221,289 204,306 170,340" fill="#f0f9e7" stroke="green" id="P2" class="territory territory_poly territory_P2"></polygon><text x="183.6" y="289" style="font-size:8px;" id="P2" class="territory territory_text territory_unit territory_P2">★ Keb</text><polygon points="238,197.2 255,204 272,204 306,204 238,272 238,238" fill="#f0f9e7" stroke="green" id="P3" class="territory territory_poly territory_P3"></polygon><text x="251.6" y="229.5" style="font-size:8px;" id="P3" class="territory territory_text territory_unit territory_P3">★ Wer</text><polygon points="187,476 173.4,476 173.4,484.5" fill="#f0f9e7" stroke="green" id="XM" class="territory territory_poly territory_XM"></polygon><text x="0" y="0" style="font-size:8px;" id="XM" class="territory territory_text territory_XM"></text><polygon points="17,578 17,425 51,374 85,374 119,340 170,340 306,204 255,204 170,170 136,153 102,136 68,102 102,51 153,85 204,68 238,68 255,51 323,51 357,34 408,34 425,17 459,17 459,85 425,153 408,187 374,221 306,391 187,476 85,544 34,612" fill="none" stroke="blue" stroke-width="2"></polygon><polygon points="187,476 173.4,476 173.4,484.5" fill="blue" stroke="green" id="XM" class="territory territory_poly territory_XM" opacity="1.0"></polygon></svg>